<?xml version="1.0" encoding="UTF-8" standalone="no"?>
<svg
   version="1.1"
   id="Layer_1"
   x="0px"
   y="0px"
   viewBox="0 0 2614 709.44"
   enable-background="new 0 0 2614 709.44"
   xml:space="preserve"
   sodipodi:docname="bg1.svg"
   inkscape:version="1.1.1 (c3084ef, 2021-09-22)"
   xmlns:inkscape="http://www.inkscape.org/namespaces/inkscape"
   xmlns:sodipodi="http://sodipodi.sourceforge.net/DTD/sodipodi-0.dtd"
   xmlns="http://www.w3.org/2000/svg"
   xmlns:svg="http://www.w3.org/2000/svg"><defs
   id="defs872" /><sodipodi:namedview
   id="namedview870"
   pagecolor="#ffffff"
   bordercolor="#666666"
   borderopacity="1.0"
   inkscape:pageshadow="2"
   inkscape:pageopacity="0.0"
   inkscape:pagecheckerboard="0"
   showgrid="false"
   inkscape:zoom="0.32095504"
   inkscape:cx="1185.5243"
   inkscape:cy="157.34291"
   inkscape:window-width="1312"
   inkscape:window-height="847"
   inkscape:window-x="0"
   inkscape:window-y="25"
   inkscape:window-maximized="0"
   inkscape:current-layer="Layer_1" />
<path
   d="M27,378.659h30.578v25.458h7.111v-25.458h13.653v-1.618h-5.209v-1.493h16.373v-70.204h11.804v-4.409h-8.96v-9.742h8.96  v-9.956h4.551v-19.556h29.227v3.129h-6.258v4.409h6.258v7.609h2.631v5.689h11.378v35.556h6.044v-53.049H171v-5.404h6.684v-3.058  h-10.027v-1.636h10.027v-3.627h-18.062v-3.2h30.72v-29.867l27.733-61.938v-18.987h1.991v19.129l23.538,60.8v60.515h-2.347v46.364  h12.516l5.831-21.618l9.173-11.947l4.231,4.231v-18.524h0.889v10.596h5.547v-9.529h1.28v18.418l5.262,31.36h16.569v34.418h4.622  v-92.515h3.271v-122.24l11.52-31.218V75.37h1.209v19.129h2.702v14.009l3.413-5.404V95.21l5.262-5.262l6.187,4.48v9.244  l16.853,43.093l0.853,150.186l2.631-4.551l3.84,5.404v-17.422l1.849,0.142v9.956h4.551v-9.529h1.564v21.404h4.196v24.533h38.187  v73.458h6.4V140.295h15.431v42.809l5.227-5.227h6.507l7.182,36.018c0,0,9.031,5.689,3.342,16.071v8.249h8.178v3.484h16.711v51.769  h8.391l6.4-140.942h12.089v-26.88h2.276v-5.262h55.182v-16.64h1.991v9.813h1.92v3.484h0.853v-3.2h1.351v-2.062h3.2v1.849h1.707  v7.182h22.187v3.271h2.987v26.738h10.24v26.596h42.453v61.084h1.209c0,0,0.284-6.187,12.089-6.187v-63.36l7.111-22.116v-4.053  c0,0,2.56-3.982,6.542,0v4.48h1.493v-14.649h2.702v19.484l5.902,16.853v61.795c0,0,12.231,1.138,16.782,5.689v35.769h11.52v-26.667  c0,0-1.138-12.48,12.48-12.48v-13.618h3.022v13.618c0,0,12.48,0.107,12.48,12.48v24.604h5.938v1.493h8.533v4.267h-3.2v84.764h7.751  v6.329h2.418v10.169h5.333v19.271h1.707v-1.991h6.116v-4.551h23.538c0,0,1.28,6.827,4.053,6.827c2.773,0,16,0,16,0v18.276  l12.089,5.12v-90.098h14.933l12.373,21.973V244.259h28.587v68.338l20.124-31.858v-7.324h1.564v6.116h1.778v-4.48h1.707v68.053  l13.867,18.844l2.987-4.622h5.831v-73.102h5.689v-26.596h17.067v-2.987h2.773v3.2h7.893v2.204h2.276v-4.409l6.4-7.893v-28.018h1.92  v-11.733h8.391v11.591h5.689v-6.684h27.591v8.533h15.004v104.675l11.164,1.849v-14.791h37.049v-25.102h7.751v-21.404h3.698v-8.96  h4.125v-12.231h22.969v11.378h5.333v9.102h2.418v2.844h2.062v4.196h3.058v-2.418h12.16l4.693-4.693v-9.173h2.773v-8.96h4.764v2.56  h3.484v-3.556h5.902v12.16h4.836v9.813l3.378,3.378v17.884h5.938v79.644l5.973-34.667l68.16,20.693v54.613h19.733v-70.72h8.853  v-5.333l11.2-20.373v-11.84l8.16-8.16h1.333v-13.173h1.493v13.333l8.053,8.053h2.72v11.04l11.627,21.44h2.027v3.307h5.333v22.187  l21.76,8.96v-62.827h11.733v-26.56c0,0-1.92-12.8,12.8-12.8v-13.653h1.813v13.653c0,0,11.52-1.493,11.52,12.8s0,24.107,0,24.107  l8.427-9.92v-8h2.133v-33.6l27.093-62.293v-17.707h2.24v17.707l23.04,59.84v23.147h3.84v-60.053h42.276v-28.16h12.373v-25.956h1.778  v-3.484h8.604v-4.409h1.564v4.338h10.382V91.655l12.658-31.787v-39.04h1.422v18.631h1.707v14.862l3.627-5.902v-6.684  c0,0-0.924-4.551,6.116-4.551s5.689,4.48,5.689,4.48v8.036l17.067,41.955v64.213h18.56v4.196h2.844v27.307h11.591l7.253,140.658  h9.031v-51.982h16.213v-3.84h6.613v-9.244c0,0-4.942-6.222,0-11.164l4.231-4.231l7.644-36.658h6.755l3.769,6.329h2.062v-42.098  h15.076v210.062h4.978v-24.036h38.684V338.41l4.551-5.262v-17.92h1.138v9.813h4.836v-8.96h1.92v15.787c0,0,0.853-3.698,2.916-3.698  s2.844,4.409,2.844,4.409V163.05c0,0-2.276-18.773,8.462-35.413c0,0,1.529-11.627,7.822-17.92v-8.889c0,0,1.707-3.698,5.618-3.698  c3.911,0,5.333,2.844,5.333,2.844v8.818l3.556,5.12V99.477h3.058v-18.56h2.062v41.884c0,0,9.173,16.356,10.24,27.876v152.249h5.262  v81.635h4.907v-24.107h20.267V250.161l2.773,2.773v11.2l1.12,1.12v6.56h15.627v34.987h4.267v-92.373h3.947V91.868  c0,0,4.053-19.947,11.84-31.253l-1.92-2.347v-37.44h1.92v18.56h3.093v14.4l4.267-4.267v-8.107c0,0,0.213-3.84,5.653-3.84  c5.44,0,5.44,4.267,5.44,4.267v7.68l2.453,3.413V38.428h1.707v16.213l27.947,64.747v128.746l3.84,9.6v14.827h39.36v71.822  l4.693-28.302V86.393h16.071v41.244l4.053-4.053h7.324l8.249,35.769c0,0,9.671,6.258,2.844,16.071v7.822h7.111v4.267h17.209v51.911  h9.813l6.258-141.084h10.382V71.601h3.129v-6.116h88.178v4.409h3.271v25.884h10.098v28.018h42.667v59.307  c0,0,3.84-6.684,25.173-6.684v-13.653h2.844v13.084c0,0,13.227-1.28,25.884,5.404v37.12h5.262v-3.982h7.396V188.65  c0,0,3.271-9.956,11.235-9.956v-13.938h3.698v15.36c0,0,11.022,4.551,11.022,11.022s0,24.676,0,24.676h15.146v4.658h-2.418v85.653  h6.969v5.12h3.555v13.369h2.987v17.351l11.378-5.404h20.907c0,0,0.284,5.689,4.551,5.689s15.787,0,15.787,0v17.493l12.8,5.973  v-90.311h14.08l13.227,22.187v-107.52h8.107v-2.56h13.511v2.987h6.969v67.84l11.236-18.631h14.507v47.36l13.369,23.467l2.276-7.822  h5.547v-73.387h6.827v-26.311h29.582l6.969-6.969v-30.578h14.222v-7.253h8.96v9.956h2.56v-8.533H2587v528.975H27V378.659z"
   id="path867" />
<path
   style="fill:#4d4d4d;stroke-width:3.48999"
   d="M 27.919893,532.22296 V 378.66355 H 41.87984 55.839786 v 13.95995 c 0,10.08219 1.454163,13.95994 5.23498,13.95994 3.780818,0 5.23498,-3.87775 5.23498,-13.95994 0,-13.62757 0.290821,-13.95995 12.214954,-13.95995 h 12.214953 v -36.64486 c 0,-34.3182 0.443172,-36.64486 6.979973,-36.64486 3.838984,0 6.979974,-1.57049 6.979974,-3.48998 0,-1.9195 -2.35574,-3.48999 -5.234981,-3.48999 -2.879238,0 -5.234979,-1.5705 -5.234979,-3.48999 0,-1.91949 2.187715,-3.48998 4.861589,-3.48998 5.626951,0 9.098361,-7.43258 9.098361,-19.48037 0,-6.28792 1.89758,-8.43953 7.44311,-8.43953 7.10302,0 20.47678,11.74563 20.47678,17.98394 0,1.62579 2.35574,2.95598 5.23498,2.95598 3.95532,0 5.23498,4.26554 5.23498,17.44994 0,13.18439 1.27966,17.44993 5.23498,17.44993 4.18798,0 5.23498,-5.23498 5.23498,-26.1749 0,-21.46871 0.98606,-26.1749 5.48427,-26.1749 6.26798,0 15.45565,-8.15036 15.45565,-13.71066 0,-2.0566 3.14099,-3.73927 6.97997,-3.73927 5.88953,0 6.97554,-2.3172 6.9516,-14.83245 -0.0304,-15.79238 23.66581,-74.89492 28.02533,-69.90068 1.30513,1.49514 6.53319,13.3358 11.61791,26.31257 8.63075,22.02661 9.24495,27.30149 9.24495,79.39719 0,53.7638 0.25908,55.80307 7.08951,55.80307 3.89922,0 7.97267,-2.74836 9.0521,-6.10747 5.96568,-18.56486 9.60198,-25.30241 13.65585,-25.30241 2.48641,0 5.20753,-1.96312 6.04693,-4.36248 0.83941,-2.39937 2.69498,5.4531 4.12349,17.44993 2.37925,19.98121 3.30102,21.81242 10.9796,21.81242 7.75042,0 8.38229,1.33734 8.38229,17.74076 0,12.63955 1.2544,17.32369 4.36249,16.29028 3.31638,-1.10266 4.78092,-27.7434 6.10747,-111.0979 1.51799,-95.38361 2.55778,-111.46345 7.99296,-123.60737 3.43639,-7.67797 8.13862,-18.27881 10.44942,-23.55741 2.31079,-5.27861 4.99593,-9.593387 5.96698,-9.5884 0.97105,0.0049 6.0844,12.23858 11.363,27.18575 9.31411,26.37432 9.59747,29.36219 9.59747,101.20055 0,57.35776 0.98219,73.82742 4.36248,73.15136 2.39937,-0.47987 5.51631,-2.44299 6.92653,-4.36248 1.41023,-1.91949 2.5881,0.0436 2.61749,4.36248 0.0294,4.31886 1.62394,7.85247 3.54343,7.85247 1.91949,0 3.48999,5.49673 3.48999,12.21496 v 12.21495 h 17.32785 17.32782 l 0.99461,35.48892 c 0.68802,24.55082 2.33913,35.93484 5.35706,36.9357 3.43827,1.14025 4.36248,-26.34135 4.36248,-129.71857 0,-128.83867 0.12383,-131.16533 6.97998,-131.16533 6.218,0 6.97997,2.32666 6.97997,21.31331 0,17.44652 0.94331,20.95133 5.19942,19.31811 3.58837,-1.377 5.8482,0.94036 7.29341,7.47908 1.15169,5.21085 3.83476,14.97101 5.96233,21.68923 2.12756,6.71823 3.42165,15.1796 2.87574,18.80306 -1.15469,7.66419 5.05176,12.4776 16.18646,12.55338 7.44054,0.0506 7.85247,1.42649 7.85247,26.22834 0,23.37547 0.70815,26.1749 6.6212,26.1749 6.19595,0 6.78488,-4.48298 9.16987,-69.79973 2.37274,-64.98169 2.99978,-69.79973 9.08374,-69.79973 5.21547,0 6.54585,-2.64268 6.5885,-13.08745 0.0279,-7.1981 1.20726,-14.88509 2.61749,-17.0822 2.75412,-4.29089 63.63882,-8.19423 63.63882,-4.07991 0,1.31859 5.10411,2.88956 11.34246,3.49105 10.35514,0.99843 11.43676,2.23282 12.42564,14.18107 0.70854,8.56114 2.82082,13.08745 6.10748,13.08745 3.53501,0 5.02429,4.13792 5.02429,13.95995 v 13.95994 h 20.93992 20.93992 v 30.03828 c 0,25.95714 0.75003,29.75046 5.52043,27.91989 3.03621,-1.16511 6.96245,-2.11838 8.72496,-2.11838 1.76248,0 3.27539,-16.09756 3.36194,-35.77236 0.0963,-21.89558 1.96109,-39.83387 4.807,-46.24233 l 4.64954,-10.46996 4.5707,10.46996 c 2.51387,5.75848 5.20754,25.72257 5.98588,44.36463 1.23504,29.58005 2.26259,34.16363 8.07227,36.00755 5.47324,1.73714 6.65708,5.48452 6.65708,21.07262 0,17.89707 0.48902,18.95974 8.72497,18.95974 8.15055,0 8.72496,-1.15602 8.72496,-17.55946 0,-13.03736 1.47033,-18.12369 5.70934,-19.75035 9.79824,-3.75993 16.90644,3.92883 18.05803,19.53292 0.64488,8.73802 3.1138,15.4466 6.10748,16.59539 3.99931,1.53469 5.02502,10.75665 5.02502,45.17973 0,23.78829 1.41686,43.25144 3.14856,43.25144 3.99223,0 10.81139,19.27479 10.81139,30.55905 0,6.85207 1.22861,8.04446 6.10747,5.9274 11.10695,-4.8196 28.79239,-6.02868 28.79239,-1.96842 0,2.12952 3.92624,3.87182 8.72497,3.87182 6.87594,0 8.72497,1.76988 8.72497,8.35157 0,6.90648 5.64215,12.58835 12.5004,12.58835 0.80273,0 1.45954,-19.63117 1.45954,-43.62483 0,-41.40427 0.3579,-43.62484 7.03128,-43.62484 4.18746,0 9.82829,4.58747 13.94689,11.34246 l 6.91562,11.34246 0.014,-54.96729 0.0121,-54.96729 h 13.83357 13.83357 l 0.99887,33.88519 0.99887,33.88518 11.30142,-17.30775 11.30138,-17.30775 0.0412,33.55672 c 0.0349,28.62298 1.10426,34.90838 7.27254,42.75008 6.26578,7.96565 7.89703,8.52787 12.21495,4.20993 3.6581,-3.65819 4.98335,-14.33072 4.98335,-40.1326 0,-21.1061 1.39436,-35.14915 3.48999,-35.14915 1.91949,0 3.48999,-5.49673 3.48999,-12.21495 0,-11.81697 0.43209,-12.21495 13.26194,-12.21495 16.84617,0 21.57702,-4.86643 21.88323,-22.51042 0.25582,-14.74992 5.99859,-34.20672 6.48935,-21.98691 0.25292,6.29682 10.71531,8.85254 10.71531,2.61749 0,-1.9195 5.4967,-3.48999 12.2149,-3.48999 6.7182,0 12.215,1.57049 12.215,3.48999 0,1.91949 3.1,3.48998 6.889,3.48998 6.5152,0 6.9414,2.88592 7.8525,53.17829 0.8592,47.42402 1.6243,53.30514 7.0709,54.35069 4.2298,0.81197 6.1075,-1.05218 6.1075,-6.06347 0,-6.44409 2.1003,-7.23587 19.1949,-7.23587 h 19.1949 v -12.21495 c 0,-6.71823 1.5705,-12.21495 3.49,-12.21495 1.9195,0 3.49,-3.95097 3.49,-8.77994 0,-4.82896 1.9529,-15.03717 4.3397,-22.68491 3.683,-11.80082 5.7955,-13.90498 13.96,-13.90498 7.1055,0 9.6202,1.72348 9.6202,6.59334 0,21.14307 27.8256,26.71387 33.6166,6.73017 2.9836,-10.29562 3.137,-10.3551 10.4057,-4.03413 10.0903,8.77465 15.3074,36.06877 15.3074,80.08303 0,23.56399 1.2479,35.90781 3.49,34.52211 1.9195,-1.18631 3.6004,-6.3831 3.7353,-11.54842 0.553,-21.1725 1.9458,-21.56624 37.2721,-10.53661 l 32.2824,10.07929 v 27.81528 27.8153 h 10.4699 10.47 v -36.64486 c 0,-26.94344 1.1549,-36.6676 4.3625,-36.73073 5.0701,-0.0998 16.5774,-21.64645 16.5774,-31.04012 0,-9.16448 8.1001,-15.21773 13.345,-9.97281 2.2577,2.25771 4.1049,6.20915 4.1049,8.78096 0,6.92449 13.5931,32.31784 17.2998,32.31784 1.7588,0 3.69,4.99935 4.2915,11.10967 0.8661,8.79793 3.4538,12.06796 12.4361,15.71495 l 11.3425,4.60528 v -31.41989 c 0,-25.60214 0.9693,-31.41989 5.2349,-31.41989 3.9504,0 5.235,-4.2519 5.235,-17.32714 0,-13.02618 1.5384,-18.15046 6.1976,-20.644 11.2179,-6.00361 18.2323,1.57452 18.2323,19.69748 0,15.26111 0.3676,15.91177 5.8772,10.40224 3.8784,-3.87848 6.3317,-13.33088 7.2139,-27.79525 0.9358,-15.34237 5.1412,-30.6555 14.0173,-51.04138 l 12.6805,-29.12326 11.3808,29.12326 c 6.2594,16.0178 11.4414,34.22737 11.5155,40.46573 0.074,6.23835 1.7051,11.34245 3.6246,11.34245 2.0529,0 3.49,-12.21495 3.49,-29.66488 v -29.66489 h 20.9399 20.9399 v -13.95995 c 0,-11.63329 1.1633,-13.95994 6.98,-13.95994 5.9459,0 6.9799,-2.32666 6.9799,-15.70494 0,-15.12328 0.3878,-15.70494 10.47,-15.70494 h 10.47 v -31.6525 c 0,-27.466095 1.4278,-35.082334 10.7956,-57.584779 10.4957,-25.211682 17.1243,-32.716005 17.1243,-19.386572 0,3.600142 3.9262,15.423628 8.7249,26.274412 7.2898,16.483367 8.725,25.128106 8.725,52.552249 v 32.82355 l 9.5974,1.10431 c 8.5879,0.98814 9.7104,2.66458 10.6707,15.93675 0.6962,9.62201 2.7339,14.83244 5.8007,14.83244 6.2221,0 8.0562,14.03645 10.8308,82.88719 2.1131,52.43602 2.7817,56.71228 8.8678,56.71228 5.8595,0 6.5824,-2.84897 6.5824,-25.94309 0,-25.70718 0.087,-25.95313 9.5974,-27.0474 7.764,-0.89334 9.8232,-3.10451 10.7788,-11.57426 0.6497,-5.75848 2.4315,-12.04046 3.9595,-13.95995 1.528,-1.91949 3.862,-8.98672 5.1867,-15.70494 4.6325,-23.49373 5.5157,-25.16981 10.9059,-20.69634 4.1705,3.46119 4.9415,0.76717 4.9415,-17.26618 0,-19.0406 0.7601,-21.36725 6.98,-21.36725 6.8249,0 6.98,2.32665 6.98,104.6996 0,67.47307 1.2409,104.69959 3.4899,104.69959 1.9195,0 3.49,-5.49672 3.49,-12.21495 v -12.21495 h 19.195 c 18.5832,0 19.1988,-0.30583 19.3186,-9.59747 0.1211,-9.39777 9.9791,-31.27366 10.2226,-22.68491 0.068,2.39937 1.6941,4.36248 3.6136,4.36248 2.2304,0 3.5201,-31.17455 3.5733,-86.37716 0.046,-47.50745 1.4947,-91.8739 3.22,-98.59213 5.2773,-20.55103 15.7632,-48.789208 18.1308,-48.825493 1.2315,-0.01885 3.4494,4.284543 4.9287,9.563143 l 2.6895,9.59747 2.5109,-10.46996 2.5108,-10.469964 0.413,12.648664 c 0.2271,6.95677 2.7686,19.32555 5.6479,27.48618 3.8212,10.83063 5.2378,30.03423 5.2456,71.11102 0.019,101.00127 3.9871,176.67803 9.2636,176.67803 3.0284,0 4.6857,-4.32033 4.6857,-12.21495 0,-10.70263 1.0802,-12.21495 8.725,-12.21495 h 8.7249 l 0.2754,-47.98732 c 0.1514,-26.39302 1.0676,-46.0242 2.0358,-43.62483 0.9682,2.39936 4.7704,4.36248 8.4494,4.36248 5.7004,0 6.6892,2.57956 6.6892,17.44994 0,9.59746 1.3212,17.44993 2.936,17.44993 2.8566,0 7.351,-104.19014 7.678,-177.98932 0.1096,-24.75328 1.9444,-41.174989 5.654,-50.604807 3.0205,-7.677971 5.43,-20.241923 5.3546,-27.919893 -0.1179,-12.011065 0.2687,-12.741896 2.7694,-5.23498 l 2.9064,8.724966 2.4628,-7.85247 c 2.945,-9.389638 8.6288,-10.424141 8.6288,-1.570494 0,3.455087 1.392,7.773946 3.0933,9.597464 1.7013,1.823518 8.7685,16.548588 15.7049,32.72238 l 12.6117,29.406894 0.031,59.58777 c 0.017,32.77327 1.0207,67.83286 2.2311,77.91019 l 2.2008,18.32243 h 20.4538 20.4538 l 0.4129,35.77237 c 0.2768,23.98762 1.2906,32.32317 3.0771,25.3024 1.4653,-5.75848 2.8499,-63.47413 3.0771,-128.25701 0.4031,-115.322753 0.5578,-117.78705 7.3918,-117.78705 6.15,0 6.9799,2.326658 6.9799,19.56832 0,15.44144 1.0419,19.1685 4.9403,17.67255 3.5931,-1.37878 6.0971,3.04021 9.182,16.20404 2.333,9.9549 5.6337,19.86387 7.3349,22.01995 1.7012,2.15607 2.1283,6.43457 0.949,9.50777 -2.7007,7.03796 6.2136,16.23698 15.7344,16.23698 6.6697,0 7.2293,2.0258 7.2293,26.1749 0,23.12203 0.7515,26.1749 6.4436,26.1749 5.7864,0 6.6763,-4.32753 8.725,-42.42777 1.2547,-23.33527 2.2813,-53.04622 2.2813,-66.02431 0,-26.69101 2.0873,-34.637371 9.0984,-34.637371 3.4399,0 4.8615,-4.622885 4.8615,-15.80921 v -15.80921 l 44.4974,0.976767 44.4973,0.976767 1.0832,13.08745 c 0.7085,8.56114 2.8208,13.08745 6.1075,13.08745 3.535,0 5.0243,4.137917 5.0243,13.959947 v 13.95995 h 20.9399 20.9399 v 29.73137 29.73138 l 9.5975,-2.03047 c 5.2786,-1.11675 13.022,-2.71974 17.2077,-3.56218 4.1856,-0.84244 11.6455,0.002 16.5774,1.8776 8.1361,3.09334 8.9672,5.19626 8.9672,22.69061 0,11.3845 1.5314,19.28131 3.7393,19.28131 7.3122,0 13.7106,-10.1444 13.7106,-21.73763 0,-14.7382 5.6391,-21.1054 14.4946,-16.36608 4.7897,2.56335 6.4453,7.45213 6.4453,19.03158 0,13.25549 1.0423,15.58215 6.98,15.58215 6.6191,0 6.98,2.32665 6.98,44.99643 0,35.7983 1.0202,45.38792 4.9906,46.91153 2.7576,1.05816 6.0722,9.12708 7.4077,18.03261 1.9667,13.11498 3.475,15.6615 8.0968,13.66965 10.8996,-4.69746 24.0659,-5.59282 26.4124,-1.79615 1.3003,2.104 6.1978,3.82544 10.8833,3.82544 6.7278,0 8.5189,1.80865 8.5189,8.60218 0,7.33811 8.3007,15.82773 15.4755,15.82773 1.086,0 1.9745,-20.41642 1.9745,-45.36982 0,-37.65085 0.8754,-45.36983 5.1453,-45.36983 2.83,0 7.9341,5.1041 11.3425,11.34246 6.1799,11.31099 6.1997,11.18999 7.1582,-43.62484 l 0.9611,-54.96729 h 8.3509 c 18.4335,0 19.3852,1.85082 19.4846,37.89075 0.091,33.15493 0.1812,33.51166 6.0434,24.05652 3.2727,-5.27861 8.7277,-9.59747 12.1221,-9.59747 5.2913,0 6.1734,3.36007 6.1846,23.55741 0.01,17.45271 1.8346,26.54515 7.0424,35.08678 6.2106,10.18654 7.6317,10.92692 12.2019,6.35676 3.8853,-3.88536 5.1726,-13.91975 5.1726,-40.32176 0,-21.1061 1.3943,-35.14915 3.49,-35.14915 1.9195,0 3.49,-6.19592 3.49,-13.76872 v -13.76873 l 16.5774,-1.06372 16.5774,-1.06371 1.0549,-18.32243 c 0.958,-16.63964 1.8128,-18.32243 9.3067,-18.32243 4.5384,0 9.0438,-1.96312 10.012,-4.36249 1.0516,-2.60611 1.8712,-1.90357 2.0358,1.745 0.3176,7.0433 5.8356,8.18492 8.4342,1.74499 0.9681,-2.39937 1.8842,113.81719 2.0358,258.25901 l 0.2755,262.6215 H 1307 27.919893 Z"
   id="path1028" /><path
   style="fill:#000000;stroke-width:0"
   d="M 28.041311,532.78491 V 381.6734 h 12.064593 c 11.700138,0 12.125832,0.38298 14.091815,12.67757 1.560742,9.76034 3.265511,12.44293 7.40854,11.65796 3.712152,-0.70334 5.677979,-4.58058 6.337741,-12.50007 0.898157,-10.78104 1.657419,-11.53872 12.462805,-12.43688 l 11.506381,-0.95643 0.874877,-36.27119 c 0.797641,-33.06916 1.416516,-36.41284 7.010327,-37.87565 7.49501,-1.95999 8.16585,-8.41924 0.8744,-8.41924 -4.428243,0 -4.181639,-1.00563 1.55785,-6.35278 4.04919,-3.77239 6.8189,-10.10009 6.8189,-15.5785 0,-6.76364 1.47798,-9.22574 5.53814,-9.22574 7.53665,0 19.38747,8.67829 19.38747,14.19733 0,2.47329 1.93958,4.49688 4.31017,4.49688 4.93441,0 8.0484,9.35919 8.11009,24.37514 0.0336,8.16913 1.19331,10.13475 5.49502,9.31332 4.53102,-0.86522 5.60575,-5.0876 6.35942,-24.98474 0.77572,-20.47939 1.77822,-24.2201 6.92905,-25.85491 3.31217,-1.05124 8.51231,-5.05765 11.55587,-8.90314 3.04356,-3.84549 7.98737,-7.92481 10.98623,-9.06515 3.44237,-1.309 5.45248,-5.3656 5.45248,-11.00367 0,-15.31539 22.46254,-75.77512 26.61128,-71.62638 0.68803,0.68803 5.01148,10.98887 9.60767,22.89076 7.5947,19.66658 8.5262,26.80193 10.21556,78.25166 1.02237,31.13653 2.84993,57.59847 4.06126,58.80431 4.53291,4.51241 12.17047,-1.99816 17.82847,-15.19773 8.78607,-20.49708 14.81031,-20.88203 17.95164,-1.14709 2.11364,13.27868 4.08913,16.87692 11.11425,20.24397 7.39361,3.54366 8.54371,5.93463 8.54371,17.76166 0,14.51867 4.12437,20.71674 7.77211,11.67986 1.20652,-2.98901 3.45963,-51.70275 5.00691,-108.25273 2.89693,-105.87731 4.61843,-119.80355 17.83591,-144.2857 l 5.56649,-10.310538 9.14343,25.889048 c 8.87168,25.11958 9.19057,28.06524 10.72951,99.10803 1.19204,55.02788 2.53883,73.21898 5.42073,73.21898 5.8763,0 12.70268,11.61626 13.83867,23.54896 1.01924,10.70596 1.05008,10.72528 18.5965,11.64803 l 17.5756,0.92427 1.16063,33.90976 c 1.11455,32.56198 3.04598,41.19957 8.08693,36.16578 1.28523,-1.28338 3.03781,-59.58846 3.89463,-129.56683 0.85681,-69.97837 2.6094,-128.28242 3.89462,-129.56457 3.91532,-3.90594 5.35244,-0.048 7.4469,19.99075 1.34,12.82032 3.37745,19.22075 6.11859,19.22075 4.32936,0 9.5261,15.87564 13.5694,41.45342 2.55039,16.13368 6.53896,20.7346 18.04278,20.8129 6.63218,0.0451 7.01033,1.28763 7.01033,23.03396 0,16.32391 1.31501,24.07764 4.53708,26.75169 6.1947,5.14115 11.0681,1.40995 11.31065,-8.65972 0.55326,-22.96839 3.33318,-79.66573 4.96039,-101.16904 1.46104,-19.30753 3.02285,-24.89551 7.65023,-27.372 3.85761,-2.06454 5.81436,-6.5444 5.81436,-13.31159 0,-17.99325 4.47057,-20.65342 35.83057,-21.32057 37.49718,-0.79772 49.52475,2.64359 50.89766,14.56275 0.57553,4.99671 3.73018,12.49677 7.01032,16.66679 3.28015,4.17002 5.96389,12.30001 5.96389,18.06664 v 10.48477 h 20.13077 20.13073 l 0.90025,27.26239 c 0.8847,26.79279 1.04011,27.27862 9.02242,28.20523 7.5007,0.87069 8.27555,-0.17585 10.12602,-13.6766 1.10212,-8.04069 2.00384,-24.02898 2.00384,-35.52954 0,-11.50056 1.62773,-25.5794 3.61717,-31.28631 3.59807,-10.32144 3.63203,-10.33622 6.44068,-2.80171 1.55293,4.16597 4.08435,22.98161 5.62537,41.81254 2.21162,27.02545 3.96663,35.08977 8.33101,38.28107 3.75769,2.74768 6.0372,9.74637 7.11489,21.84456 1.46077,16.39848 2.22785,17.87606 9.73264,18.74679 7.79754,0.90469 8.23845,0.13637 10.28076,-17.91529 1.78327,-15.76208 3.11411,-18.86051 8.10088,-18.86051 6.41324,0 12.40579,8.53353 12.43692,17.71046 0.009,3.11151 2.35974,9.8635 5.22042,15.00441 3.79146,6.81357 5.53987,19.48123 6.45053,46.73552 0.95172,28.48313 2.67673,40.40562 7.24238,50.05598 3.2962,6.96717 5.99308,16.34839 5.99308,20.84712 0,10.72954 2.8595,12.0917 17.11826,8.15467 7.96682,-2.19975 14.00735,-2.25415 18.40183,-0.16576 3.59804,1.70993 8.9955,3.89313 11.99436,4.85155 2.99886,0.95842 5.45248,4.3103 5.45248,7.44865 0,6.48119 5.67733,13.18371 11.1672,13.18371 2.59856,0 4.05144,-12.38541 4.91355,-41.88652 0.67321,-23.03759 2.03699,-42.69951 3.03065,-43.69316 3.57632,-3.57633 12.38055,2.40167 17.61333,11.95934 5.22603,9.54533 5.35496,8.5961 6.18804,-45.55523 l 0.85083,-55.30369 h 11.98324 c 11.42683,0 12.07294,0.5425 13.91447,11.68387 1.06217,6.42614 1.94666,21.14783 1.96551,32.71487 0.0187,11.56704 1.1782,21.03098 2.57628,21.03098 1.39808,0 5.95479,-5.95878 10.12603,-13.24173 l 7.58405,-13.24167 1.76592,30.05374 c 1.83418,31.21567 7.48444,46.42969 16.73885,45.07143 8.11909,-1.19163 9.05236,-4.32351 11.49096,-38.56135 2.96771,-41.66605 5.64986,-57.72491 10.13189,-60.66279 1.9207,-1.25899 7.87724,-2.31054 13.23674,-2.33678 12.86239,-0.063 16.78435,-5.4725 18.91175,-26.08504 1.65973,-16.08134 2.14497,-16.89822 7.99342,-13.45693 4.84286,2.84958 6.53986,2.79827 7.63686,-0.23093 1.6661,-4.6008 22.701,-5.32255 22.701,-0.77892 0,1.71363 2.6014,3.1157 5.7809,3.1157 4.8635,0 6.096,3.33718 7.7671,21.03098 1.0924,11.56704 1.9962,33.73212 2.0084,49.25572 0.015,18.7282 1.4355,30.15772 4.223,33.96979 4.4025,6.02079 11.3776,4.27558 11.3776,-2.84674 0,-5.57084 7.0459,-7.93872 23.6226,-7.93872 12.7005,0 13.7658,-0.61867 13.7658,-7.99408 0,-4.39674 1.4312,-10.66831 3.1805,-13.93681 1.7492,-3.26849 4.5572,-13.20222 6.2399,-22.07495 3.453,-18.20786 7.4898,-24.53958 15.6451,-24.53958 3.647,0 6.8671,3.81418 9.2077,10.90635 2.4719,7.49001 6.0387,11.51858 11.3867,12.86082 9.5738,2.40288 21.8056,-3.72233 23.9713,-12.0039 2.0059,-7.67061 6.8034,-4.92607 13.2792,7.59666 3.3507,6.47969 5.9928,24.96767 8.0976,56.66398 1.7183,25.87545 3.6765,47.63048 4.3515,48.34451 2.6714,2.82584 5.585,-3.60708 7.317,-16.15566 1.6931,-12.2665 2.433,-13.11814 10.633,-12.23919 4.8472,0.51959 18.8408,4.08185 31.0969,7.91615 l 22.2836,6.97145 0.8959,28.69333 0.8958,28.69336 h 12.3459 12.3459 v -34.60185 c 0,-32.2649 0.5205,-35.22052 7.7073,-43.7615 4.239,-5.03779 9.2883,-15.05464 11.2207,-22.25968 1.9323,-7.20503 4.1971,-14.21969 5.0329,-15.58813 2.567,-4.2033 9.8012,3.97524 11.8773,13.42787 1.0813,4.92326 5.8415,14.3012 10.5781,20.83987 4.7365,6.53867 9.5705,15.70779 10.7421,20.37583 1.9535,7.78346 15.3727,17.94778 23.6951,17.94778 2.0631,0 3.2704,-11.37951 3.2704,-30.82367 0,-22.27 1.1137,-31.25101 4.0131,-32.36363 2.2072,-0.84699 4.3536,-6.95577 4.7698,-13.57508 1.0396,-16.53498 3.0652,-22.03746 8.9424,-24.29277 8.2632,-3.17087 17.3897,9.3254 15.9317,21.81414 -0.8206,7.02834 0.056,10.69558 2.5576,10.69558 4.562,0 9.3054,-14.5115 11.7121,-35.83056 1.7673,-15.65546 20.2685,-66.98758 24.1437,-66.98758 2.9485,0 18.0072,42.59693 20.7006,58.55636 3.7794,22.39353 8.4299,15.00067 9.3852,-14.9193 l 0.8958,-28.05855 h 21.693 21.693 v -13.65727 c 0,-10.88919 1.2233,-13.97717 6.0355,-15.23559 4.5921,-1.20087 6.2686,-4.82704 7.0103,-15.16297 0.9194,-12.81222 1.5506,-13.64016 11.1009,-14.56098 l 10.126,-0.97633 v -28.90658 c 0,-29.992524 3.4751,-45.991357 15.4651,-71.198294 l 7.0483,-14.817903 8.8706,25.617814 c 6.5162,18.818444 9.4349,34.535473 10.9967,59.216643 2.0337,32.13939 2.4306,33.59883 9.1385,33.59883 7.465,0 10.7948,5.29598 10.7948,17.16864 0,4.02153 2.3589,9.67077 5.242,12.55386 6.6335,6.63344 9.6679,28.57663 11.8315,85.55845 1.9278,50.7724 3.0746,56.85434 10.4551,55.45061 4.0382,-0.76804 5.3638,-5.1181 5.9883,-19.65033 1.148,-26.71688 2.892,-32.10919 10.7529,-33.24748 7.2679,-1.05241 13.6806,-14.99522 21.0769,-45.8263 2.545,-10.60897 5.5195,-15.80493 9.6687,-16.88998 5.0123,-1.31075 5.9929,-4.41873 5.9929,-18.99521 0,-12.54155 1.1776,-17.42805 4.2002,-17.42805 3.4019,0 4.5289,19.30731 5.9298,101.58189 1.1077,65.05386 2.9162,102.76839 5.0293,104.88149 2.3223,2.32231 3.9069,-0.49861 5.3502,-9.52442 l 2.0507,-12.82401 17.2896,-0.92321 17.2895,-0.92322 3.3851,-14.02065 c 2.4092,-9.97919 4.8093,-13.78936 8.3262,-13.21826 4.2974,0.69787 5.2082,-6.5719 6.9915,-55.80316 1.1277,-31.13306 2.0504,-71.73115 2.0504,-90.21798 0,-27.35412 1.4755,-38.28324 7.9248,-58.69885 4.3586,-13.79755 9.1139,-25.08645 10.5672,-25.08645 1.4533,0 3.6561,3.85568 4.895,8.56818 2.0226,7.69313 2.4832,7.94227 4.5104,2.43947 1.7851,-4.8458 2.6751,-3.54139 4.2515,6.2314 1.0965,6.79806 3.364,18.66941 5.0388,26.38077 1.6748,7.71136 3.1408,38.5568 3.258,68.54543 0.2779,71.17285 5.068,160.38657 8.9876,167.39033 2.7636,4.93813 3.4529,4.59083 6.4302,-3.23993 1.8342,-4.82404 3.3348,-10.78282 3.3348,-13.24173 0,-2.678 3.0882,-4.47072 7.7014,-4.47072 h 7.7013 l 0.8668,-42.84089 c 0.819,-40.47481 1.211,-42.84089 7.0983,-42.84089 5.3205,0 6.369,2.39105 7.1731,16.35743 0.518,8.99659 2.1048,16.35743 3.5261,16.35743 3.6834,0 6.4447,-38.98957 9.5987,-135.533 2.63,-80.506552 6.3414,-110.755644 14.2696,-116.302438 1.6463,-1.151816 4.6122,-5.599374 6.5909,-9.883463 3.2153,-6.961642 3.6199,-7.110612 3.8084,-1.402066 0.1159,3.512954 1.5074,7.71915 3.0922,9.347104 1.5847,1.627954 8.5951,15.991913 15.5785,31.919911 l 12.6972,28.959992 0.4072,55.16394 c 0.224,30.34017 1.2755,65.67943 2.3368,78.5317 l 1.9295,23.36776 21.031,0.92128 21.031,0.92128 v 31.01466 c 0,17.05806 1.1866,31.01465 2.6369,31.01465 3.9062,0 6.7102,-65.19433 6.7102,-156.0194 0,-44.14533 0.851,-82.482008 1.8912,-85.192618 3.5065,-9.137741 6.5769,-5.021083 8.5245,11.429058 1.0651,8.99658 3.8363,17.75949 6.1581,19.47313 4.6971,3.46683 17.6989,41.25552 17.6989,51.44061 0,4.50393 3.3694,7.92567 10.905,11.07421 l 10.9049,4.55638 v 21.7681 c 0,13.24366 1.2921,21.76809 3.2996,21.76809 1.8148,0 2.3497,1.53685 1.1889,3.41522 -1.3112,2.12149 0.094,2.99089 3.7107,2.29506 6.9459,-1.33652 6.7112,0.35435 10.7412,-77.3714 2.8375,-54.724 3.755,-61.18059 9.2413,-65.03083 4.4658,-3.134087 6.091,-7.91428 6.091,-17.915285 V 70.103278 h 43.6198 43.6199 v 9.634592 c 0,5.299026 2.8041,13.199466 6.2314,17.556534 3.4274,4.357346 6.2314,12.639726 6.2314,18.406726 v 10.48477 h 20.252 20.2521 v 29.93251 c 0,26.04068 0.6421,29.6861 4.9386,28.03737 2.7163,-1.04232 12.2684,-2.7566 21.2269,-3.8095 21.2399,-2.49634 26.8014,2.49471 26.8014,24.05248 0,11.46638 1.3221,15.96109 5.1241,17.42005 6.2038,2.38064 13.5701,-6.61688 13.5701,-16.5752 0,-3.84501 1.3888,-10.64378 3.0863,-15.10839 2.6357,-6.93248 4.0002,-7.62833 9.3471,-4.76676 4.3766,2.34229 6.2608,6.52297 6.2608,13.89121 0,13.31407 2.6791,20.39727 7.715,20.39727 5.2881,0 7.7879,17.16425 7.8292,53.75713 0.028,24.39138 1.2642,32.68411 6.2657,42.01583 3.4273,6.39455 6.2314,14.71911 6.2314,18.49904 0,9.34391 3.2494,10.67711 16.8624,6.91841 7.5173,-2.07563 12.9007,-2.13963 15.2861,-0.18174 2.0251,1.66225 7.1729,3.50714 11.4395,4.09975 4.8038,0.66723 8.1886,3.45003 8.8898,7.30888 1.4345,7.89347 9.5211,17.13636 14.9927,17.13636 2.92,0 4.1955,-4.48746 4.2068,-14.79959 0.01,-8.13977 0.9363,-28.69809 2.0611,-45.68515 l 2.0449,-30.88557 7.1366,8.29673 c 3.9251,4.56322 8.6059,8.29675 10.4017,8.29675 2.1445,0 3.2652,-17.64482 3.2652,-51.40907 v -51.40907 h 8.7239 c 13.6225,0 16.1807,5.07243 16.4207,32.55907 0.1202,13.79477 1.2499,27.70491 2.51,30.91142 2.1031,5.35205 2.7296,5.16046 7.642,-2.33677 8.9676,-13.68624 14.5437,-10.56422 14.6289,8.19063 0.097,21.37574 4.2606,38.69673 11.1246,46.28137 5.004,5.52941 5.9764,5.6451 10.3858,1.23567 3.4685,-3.4685 5.4968,-14.45186 7.0663,-38.26433 2.8676,-43.508 5.5702,-60.91383 9.8952,-63.72977 1.9337,-1.25899 9.4745,-2.31054 16.7575,-2.33678 l 13.2417,-0.0477 0.048,-14.79958 c 0.025,-8.13977 1.0778,-16.32463 2.3368,-18.18858 3.0655,-4.53845 16.3097,-7.72549 16.3097,-3.92468 0,1.65433 1.412,2.13524 3.1377,1.06868 1.7258,-1.06657 3.7376,-0.0978 4.4708,2.15289 0.7332,2.25066 1.8592,118.71097 2.5023,258.80068 l 1.1693,254.70858 H 1306.4453 28.041311 Z"
   id="path3730" /></svg>
