<?xml version="1.0" encoding="UTF-8" standalone="no"?>
<svg
   id="svg2"
   viewBox="0 0 2585.4065 710.65595"
   version="1.0"
   sodipodi:docname="bg2.svg"
   inkscape:version="1.1.1 (c3084ef, 2021-09-22)"
   width="2585.4065"
   height="710.65594"
   xmlns:inkscape="http://www.inkscape.org/namespaces/inkscape"
   xmlns:sodipodi="http://sodipodi.sourceforge.net/DTD/sodipodi-0.dtd"
   xmlns="http://www.w3.org/2000/svg"
   xmlns:svg="http://www.w3.org/2000/svg"
   xmlns:rdf="http://www.w3.org/1999/02/22-rdf-syntax-ns#"
   xmlns:cc="http://creativecommons.org/ns#"
   xmlns:dc="http://purl.org/dc/elements/1.1/">
  <defs
     id="defs1332" />
  <sodipodi:namedview
     id="namedview1330"
     pagecolor="#ffffff"
     bordercolor="#666666"
     borderopacity="1.0"
     inkscape:pageshadow="2"
     inkscape:pageopacity="0.0"
     inkscape:pagecheckerboard="0"
     showgrid="false"
     inkscape:zoom="0.33060449"
     inkscape:cx="957.33728"
     inkscape:cy="772.82678"
     inkscape:window-width="1296"
     inkscape:window-height="847"
     inkscape:window-x="0"
     inkscape:window-y="25"
     inkscape:window-maximized="0"
     inkscape:current-layer="svg2" />
  <metadata
     id="metadata1327">
    <rdf:RDF>
      <cc:Work>
        <dc:format>image/svg+xml</dc:format>
        <dc:type
           rdf:resource="http://purl.org/dc/dcmitype/StillImage" />
        <cc:license
           rdf:resource="http://creativecommons.org/licenses/publicdomain/" />
        <dc:publisher>
          <cc:Agent
             rdf:about="http://openclipart.org/">
            <dc:title>Openclipart</dc:title>
          </cc:Agent>
        </dc:publisher>
        <dc:date>2007-11-09T09:18:48</dc:date>
        <dc:description>Silhouette of the city of Melbourne in Australia showing a line of buildings.</dc:description>
        <dc:source>http://openclipart.org/detail/8115/city-skyline-by-rgesthuizen-8115</dc:source>
        <dc:creator>
          <cc:Agent>
            <dc:title>rgesthuizen</dc:title>
          </cc:Agent>
        </dc:creator>
        <dc:subject>
          <rdf:Bag>
            <rdf:li>city</rdf:li>
            <rdf:li>clip art</rdf:li>
            <rdf:li>clipart</rdf:li>
            <rdf:li>how i did it</rdf:li>
            <rdf:li>image</rdf:li>
            <rdf:li>media</rdf:li>
            <rdf:li>melbourne</rdf:li>
            <rdf:li>png</rdf:li>
            <rdf:li>public domain</rdf:li>
            <rdf:li>silhouette</rdf:li>
            <rdf:li>skyline</rdf:li>
            <rdf:li>svg</rdf:li>
          </rdf:Bag>
        </dc:subject>
      </cc:Work>
      <cc:License
         rdf:about="http://creativecommons.org/licenses/publicdomain/">
        <cc:permits
           rdf:resource="http://creativecommons.org/ns#Reproduction" />
        <cc:permits
           rdf:resource="http://creativecommons.org/ns#Distribution" />
        <cc:permits
           rdf:resource="http://creativecommons.org/ns#DerivativeWorks" />
      </cc:License>
    </rdf:RDF>
  </metadata>
  <path
     style="fill:#803300;stroke-width:0;stroke-miterlimit:4;stroke-dasharray:none"
     d="m 1630.9229,662.96044 c -2.2398,-3.77655 -3.4232,-10.06987 -4.2429,-22.56259 -0.7098,-10.82029 -0.8193,-11.25994 -3.3693,-13.5293 -1.8814,-1.67422 -6.2362,-3.33929 -15.2163,-5.81781 -16.2495,-4.48483 -17.9167,-5.88954 -18.678,-15.7371 -0.2865,-3.70583 -0.8069,-7.46266 -1.1564,-8.34843 -0.9993,-2.53201 -6.8039,-4.97508 -15.3457,-6.45877 -20.7364,-3.60175 -27.5193,0.0996 -32.3781,17.6681 -2.0566,7.43607 -4.2033,8.81836 -13.6948,8.81836 h -7.5453 v -59.29463 c 0,-32.61206 -0.3416,-59.29464 -0.7591,-59.29464 -0.4175,0 -8.028,-0.80499 -16.9122,-1.78887 -21.8679,-2.42185 -43.9946,-2.42603 -56.4848,-0.011 -5.1025,0.98677 -9.3788,1.79535 -9.5028,1.79684 -0.124,0 -0.2392,9.60443 -0.2559,21.33977 -0.032,22.50045 -1.0566,38.53825 -2.6517,41.50692 -0.5261,0.979 -2.5723,2.21338 -4.5471,2.74307 -3.7486,1.00539 -6.9393,3.80663 -15.1369,13.28944 -3.5088,4.05883 -5.7565,5.81862 -8.4642,6.6266 -5.4084,1.61397 -6.0917,3.98711 -7.0769,24.58016 -0.8995,18.80318 -2.6529,28.94995 -5.4361,31.45875 -1.5465,1.39394 -3.0364,1.51247 -12.8023,1.01894 -13.3818,-0.67631 -33.2117,-3.55414 -41.4349,-6.01334 -6.8892,-2.06019 -9.7555,-4.85207 -9.7555,-9.50234 0,-3.64199 -1.5653,-7.27411 -3.4444,-7.99235 -2.3126,-0.88388 -4.658,2.45681 -5.5478,7.90201 -1.0521,6.43885 -1.1899,6.64483 -5.2519,7.85002 -4.1811,1.24056 -7.9999,-0.0249 -9.1477,-3.03241 -0.4455,-1.16705 -1.0802,-10.16958 -1.4104,-20.00559 -0.3303,-9.83611 -1.0071,-19.20468 -1.504,-20.81915 -1.5442,-5.0171 -4.069,-5.66134 -21.6678,-5.52896 -17.9197,0.13476 -17.3379,0.40269 -18.3323,-8.44147 -0.8211,-7.3018 -2.7489,-11.23414 -6.3447,-12.94213 -3.2787,-1.5572 -8.5728,-1.01157 -10.3002,1.06157 -2.5642,3.07744 -4.7043,18.6712 -8.5887,62.58044 -2.2026,24.89919 -5.4861,34.09017 -9.1005,25.474 -2.0496,-4.88593 -3.0469,-25.93645 -3.0847,-65.10767 -0.035,-36.47915 -0.8217,-50.29898 -3.1139,-54.71409 -0.7226,-1.39186 -2.6522,-3.05842 -4.2879,-3.70354 -6.2814,-2.47733 -8.3016,-5.67898 -10.1163,-16.03262 -0.6832,-3.89817 -1.9262,-8.12732 -2.762,-9.39795 -3.9548,-6.01185 -19.5694,-9.10841 -42.4107,-8.41049 -17.6788,0.54005 -21.9094,1.61207 -24.1346,6.11553 -2.011,4.06978 -5.3816,24.03702 -8.6269,51.10547 l -2.5313,21.11247 -0.616,-15.72215 c -0.3388,-8.64705 -0.6172,-23.4405 -0.6187,-32.87411 v -17.15216 l -8.7943,-1.96905 c -23.3587,-5.22996 -61.9757,-5.95996 -75.2656,-1.42273 -2.3289,0.79513 -6.0606,3.04676 -8.2927,5.00376 -9.1146,7.99106 -12.2087,20.69135 -16.5008,67.73002 l -1.6395,17.96801 -0.5665,-12.57758 c -0.3115,-6.91774 -0.6159,-26.8286 -0.6765,-44.2464 l -0.11,-31.66872 h -41.94225 -41.94222 l -0.0172,30.32109 c -0.0182,32.05657 -1.11398,58.64751 -2.73955,66.4807 -0.80646,3.88602 -1.37259,4.81392 -3.21879,5.27548 -9.59097,2.39755 -25.00258,-8.20142 -29.68956,-20.41844 -5.36105,-13.97402 -15.41624,-18.1706 -47.09735,-19.65628 -16.47016,-0.77242 -16.50127,-0.7778 -23.1107,-4.03064 -6.29953,-3.10035 -17.03972,-5.87818 -28.00145,-7.24224 -2.61449,-0.32541 -5.26808,-0.90828 -5.89687,-1.29534 -0.92054,-0.56674 -0.94068,-8.46925 -0.10335,-40.56656 1.54528,-59.23597 1.06641,-61.19317 -15.26626,-62.39598 -11.49803,-0.84673 -13.7422,-2.22742 -29.44704,-18.11671 -13.3736,-13.53079 -13.73579,-13.81685 -17.13768,-13.53856 -3.06717,0.251 -3.60178,0.6537 -4.55191,3.42884 -0.59211,1.72941 -1.09948,6.25767 -1.12748,10.0628 -0.0649,8.81548 -1.52868,15.61817 -3.81784,17.74241 -0.98724,0.91605 -2.2184,3.22136 -2.73589,5.12289 -0.5175,1.90142 -1.13103,16.55374 -1.36341,32.56056 l -0.4225,29.10343 -8.70889,-0.57441 c -4.78989,-0.31594 -10.02804,-0.5766 -11.64033,-0.57909 h -2.93145 v -98.95431 -98.95431 l 5.75628,0.53546 c 3.16595,0.29443 9.23459,1.24853 13.48588,2.12016 4.25129,0.87162 7.9502,1.36496 8.21982,1.09643 0.26961,-0.26853 0.73588,-13.79792 1.03615,-30.06531 0.30027,-16.26738 0.91859,-31.06263 1.37406,-32.87829 0.65837,-2.62454 1.36398,-3.41848 3.44228,-3.87317 1.43778,-0.31444 2.90688,-1.2546 3.26466,-2.08917 0.35778,-0.83448 0.89906,-7.93449 1.20283,-15.77784 l 0.55233,-14.26057 4.0264,-1.56537 c 2.21452,-0.86097 4.41768,-2.1832 4.89592,-2.93839 0.70614,-1.11496 1.18527,-0.73736 2.54986,2.00979 0.92419,1.86049 7.62168,9.60005 14.88331,17.19897 14.74466,15.42942 20.16545,19.19801 24.00782,16.6904 1.74677,-1.14006 2.35982,-1.15002 4.42452,-0.0727 1.31824,0.68796 5.48841,1.72951 9.26705,2.31468 l 6.87025,1.06386 -0.28523,50.58982 -0.28522,50.58982 5.07174,-4e-4 c 3.00078,-2e-4 6.68388,0.69752 9.01983,1.70869 2.17145,0.94006 7.31124,1.99406 11.42176,2.34237 7.74403,0.65619 10.115,1.82005 10.115,4.96522 0,3.02604 2.96762,3.56101 19.75259,3.56101 18.1177,0 18.01684,0.0359 18.22729,-6.45438 0.0933,-2.87565 0.12634,-2.84656 0.95507,0.83935 0.47216,2.10003 1.18974,3.81819 1.59462,3.81819 0.86562,0 1.81633,-4.26461 1.97774,-8.87165 0.0721,-2.0584 0.40847,-0.97123 0.91411,2.95462 0.9045,7.02242 1.83497,8.61229 5.04041,8.61229 1.23189,0 3.44574,1.01067 4.91967,2.24605 2.12998,1.78509 3.67311,2.24595 7.52042,2.24595 6.96782,0 7.64516,1.26845 7.6626,14.34972 0.0162,12.15527 0.57836,13.69872 4.24797,11.66303 2.37755,-1.31894 2.718,-1.2559 6.78752,1.25729 2.35643,1.4552 4.28442,2.95015 4.28442,3.32206 0,2.26578 14.10429,3.71062 14.89456,1.52582 0.22342,-0.61764 1.02507,-22.48988 1.78145,-48.60493 0.75637,-26.11504 1.61216,-48.42226 1.90175,-49.57148 0.72395,-2.87305 1.59653,-2.94984 40.95312,-3.60653 33.11796,-0.55249 33.91306,-0.52461 38.07146,1.33498 2.3359,1.04464 4.5394,2.37046 4.8967,2.94636 0.3573,0.57581 0.5523,21.95213 0.4334,47.50293 -0.1364,29.3129 0.1069,46.6549 0.6595,46.99504 1.2419,0.76446 1.7979,-8.98828 2.8014,-49.13163 0.4789,-19.16255 1.1139,-35.23281 1.411,-35.71161 0.2971,-0.47869 1.8465,-0.87043 3.4431,-0.87043 4.5408,0 6.5858,-1.98808 7.2612,-7.05927 0.3245,-2.43679 1.2132,-4.94559 1.9747,-5.57508 0.8366,-0.69155 5.4423,-1.36546 11.6345,-1.70242 9.2532,-0.50359 10.4133,-0.75898 11.9316,-2.62644 2.2918,-2.81906 11.3009,-3.80713 28.0898,-3.08082 12.7497,0.5516 12.9744,0.59732 15.343,3.12166 2.534,2.70064 6.2675,3.63472 19.2983,4.82846 5.6012,0.51316 6.1363,0.74473 6.677,2.89038 0.3232,1.28289 0.3938,16.9166 0.1568,34.74158 -0.237,17.82487 -0.1776,33.82392 0.1321,35.55333 l 0.563,3.14447 0.6095,-2.69526 c 0.6597,-2.91737 1.8536,-18.45138 3.3835,-44.02179 1.0923,-18.25765 2.9121,-32.14273 4.8035,-36.65156 1.2354,-2.94477 1.4885,-3.06778 7.4717,-3.63054 3.4061,-0.32032 10.8607,-0.59154 16.5658,-0.60259 5.705,-0.011 10.9207,-0.36595 11.5903,-0.78866 0.6697,-0.42262 1.5414,-2.1347 1.9371,-3.80444 l 0.7196,-3.03591 0.092,3.26898 c 0.1093,3.86819 -0.5376,3.67276 18.8925,5.70616 7.1155,0.74463 13.2646,1.5553 13.6646,1.80162 1.2904,0.79434 2.8258,8.98699 3.5325,18.8495 0.4529,6.31952 1.0939,9.86509 1.8701,10.34278 0.6495,0.39991 3.6716,0.99265 6.7157,1.31736 3.0441,0.3247 6.0182,0.88806 6.6092,1.25181 0.8106,0.49901 1.1358,15.92006 1.3241,62.79319 0.1855,46.15848 0.5225,62.40345 1.3111,63.18863 1.3226,1.31685 4.7848,0.51016 7.6188,-1.77513 l 2.1436,-1.72851 0.6768,-42.52924 c 0.3722,-23.3911 0.8873,-43.43892 1.1446,-44.55069 0.3508,-1.51566 1.1124,-2.02144 3.0439,-2.02144 5.0472,0 8.1463,-1.06914 8.7697,-3.02555 0.3353,-1.05221 0.891,-8.98868 1.235,-17.63643 l 0.6253,-15.72334 0.1447,17.68841 0.1447,17.68842 4.2844,0.56137 c 2.3564,0.30877 4.8932,0.64084 5.6374,0.73806 1.0703,0.13974 1.4703,2.23957 1.9147,10.04995 0.3089,5.43026 0.6134,9.97426 0.6765,10.09777 0.2991,0.58556 4.574,0.13456 4.9837,-0.52561 0.5541,-0.89294 19.7016,-0.67581 21.1899,0.24034 0.5672,0.34921 3.9672,1.12303 7.5554,1.71965 l 6.524,1.08468 0.5869,7.61227 c 0.3229,4.18672 0.6273,15.39456 0.6765,24.90646 0.1,19.28137 -0.4604,17.88453 6.7005,16.70603 2.4896,-0.40967 3.6769,-1.15221 4.2522,-2.6592 1.5427,-4.0415 3.7525,-18.87141 4.3339,-29.08511 0.5033,-8.84048 0.8142,-10.3648 2.1661,-10.62208 1.3496,-0.25697 1.5785,0.42092 1.5785,4.67517 0,2.7367 -0.6126,6.77292 -1.3613,8.96956 -1.5043,4.41312 -1.0168,6.73068 2.3776,11.30366 1.611,2.17036 1.8609,3.40603 1.427,7.05499 -0.6247,5.25407 0.9783,8.25601 4.4086,8.25601 1.2319,0 3.7457,0.752 5.5863,1.67104 2.0107,1.004 6.4067,1.90411 11.0134,2.25511 7.8826,0.60051 14.2924,2.03011 17.7548,3.95982 2.9282,1.632 23.7532,1.49126 26.0444,-0.17599 1.9559,-1.42323 2.7393,-9.37286 3.1062,-31.51762 0.1064,-6.42361 0.4538,-14.04832 0.7721,-16.94379 l 0.5785,-5.26452 5.7472,-2.14734 c 3.161,-1.181 6.6983,-2.14725 7.8606,-2.14725 2.2265,0 3.9809,-2.29515 3.9809,-5.20785 0,-0.9528 1.2176,-3.25851 2.706,-5.12378 1.4882,-1.86537 2.706,-3.91948 2.706,-4.56461 0,-2.17992 3.8937,-3.97028 8.6344,-3.97028 h 4.6252 l 0.586,-8.22364 c 0.3224,-4.52297 0.5861,-18.82548 0.5861,-31.78335 0,-19.6254 0.2212,-23.7425 1.3251,-24.65496 0.7288,-0.6025 6.2215,-1.94027 12.2062,-2.97296 l 10.8811,-1.87762 0.9796,-3.87506 c 1.229,-4.86143 2.95,-5.18344 2.1386,-0.4002 -0.4547,2.68062 -0.272,3.59617 0.7994,4.00574 0.7639,0.29193 11.8511,0.95419 24.6382,1.47163 12.7872,0.51754 25.1203,1.17074 27.4071,1.45172 l 4.1578,0.51076 0.5776,6.80658 c 0.3177,3.74369 0.5777,30.80038 0.5777,60.12613 v 53.31944 l 8.3433,-0.0139 c 4.5889,-0.01 8.8952,-0.36196 9.5696,-0.78766 0.8417,-0.53119 1.5176,-4.40127 2.1551,-12.33924 0.5108,-6.36105 1.2782,-12.01114 1.7052,-12.55587 0.427,-0.54483 4.2628,-1.25739 8.524,-1.58369 4.2611,-0.3262 8.5251,-1.00758 9.4754,-1.51416 1.2413,-0.66177 2.8257,-0.54981 5.6269,0.39741 2.1444,0.72521 8.7875,1.60331 14.7622,1.95143 l 10.8632,0.63287 0.5669,5.40168 c 0.3118,2.97096 0.5723,8.07134 0.5792,11.33414 0.021,10.14298 -0.2012,9.90434 9.2039,9.88939 4.4675,-0.01 8.3481,0.21156 8.6234,0.48577 0.2753,0.27411 -1.4951,0.51076 -3.9341,0.5258 -6.6754,0.0408 -2.9455,1.65202 5.4645,2.3601 5.7023,0.48009 7.4371,1.01834 10.116,3.13879 1.7783,1.40769 4.1303,2.55941 5.2265,2.55941 1.9033,0 2.0193,0.45498 2.5778,10.10702 0.3216,5.55895 0.5866,13.81366 0.5889,18.34381 0,4.53025 0.2494,8.87394 0.5495,9.65274 0.761,1.97513 2.1605,0.86087 2.1605,-1.72025 0,-3.0348 3.2302,-4.93922 8.3778,-4.93922 4.7519,0 7.8579,-1.19344 7.8579,-3.01936 0,-0.63766 1.0146,-2.1089 2.2548,-3.26938 2.2452,-2.10083 3.0707,-5.39042 1.3531,-5.39042 -1.5338,0 -0.9944,-2.20561 0.8148,-3.33093 1.0385,-0.64602 1.9574,-2.59486 2.326,-4.93274 2.067,-13.11365 5.1895,-29.12704 5.7993,-29.7413 0.8623,-0.86854 2.8623,9.00482 5.8954,29.10374 1.2373,8.19853 2.5242,15.61956 2.8601,16.49109 0.5436,1.41108 1.435,1.51616 8.1441,0.95948 7.1987,-0.59722 7.5337,-0.54314 7.5337,1.21744 0,1.33439 1.3061,2.47146 4.7354,4.12238 l 4.7354,2.27991 1.5785,-1.89524 c 1.7858,-2.14426 2.0281,-4.00863 0.6326,-4.86761 -0.6498,-0.40001 -0.6244,-0.96784 0.081,-1.81437 0.7805,-0.93667 0.6411,-2.10262 -0.5808,-4.86133 -0.8841,-1.99595 -1.9353,-3.62894 -2.3359,-3.62894 -0.4006,0 -0.7284,-0.40429 -0.7284,-0.89842 0,-0.49413 0.601,-0.89842 1.3355,-0.89842 2.1113,0 11.2923,-6.20537 11.2923,-7.63239 0,-0.70867 0.7103,-1.66576 1.5784,-2.12702 1.9297,-1.02522 14.362,-2.5096 27.8613,-3.32675 l 10.047,-0.60807 0.4721,-2.8107 c 0.2596,-1.54595 0.8923,-3.89299 1.4058,-5.21562 0.922,-2.37484 1.0167,-2.39865 7.5655,-1.90531 5.1148,0.38526 7.2817,0.16474 9.4735,-0.96416 1.5628,-0.80499 3.0647,-1.46367 3.3374,-1.46367 0.2727,0 0.4958,43.85685 0.4958,97.45967 v 97.45966 l -2.4805,0.55171 c -9.2735,2.06278 -17.5378,4.77686 -27.7049,9.09854 -10.8935,4.63045 -14.4241,5.58286 -31.1495,8.40332 -5.3458,0.90151 -10.8023,4.17058 -13.8957,8.32533 -1.4423,1.93718 -1.8371,3.63671 -1.6698,7.18726 0.2693,5.71254 -0.9913,9.03938 -3.9305,10.37327 -3.054,1.38597 -2.9443,1.41346 -8.456,-2.12344 -2.6899,-1.72613 -6.3293,-3.37386 -8.0875,-3.66161 -5.5421,-0.90699 -7.9897,-2.26209 -9.3688,-5.18674 -1.7962,-3.80922 -3.7897,-11.08523 -5.6068,-20.46445 -2.4156,-12.46862 -3.7379,-13.02252 -4.9698,-2.08161 -1.8441,16.37834 -9.2899,30.93912 -15.821,30.93912 -3.9388,0 -8.3626,2.40313 -8.9872,4.88205 -0.745,2.95662 -1.4442,2.90572 -3.3105,-0.24104 z m -86.4635,-217.11339 c 0.578,-5.92948 1.2527,-11.99362 1.4994,-13.47601 0.6047,-3.63342 -0.8075,-5.73047 -2.9599,-4.39548 -1.4008,0.86883 -1.636,2.68579 -1.8548,14.33498 -0.1379,7.33706 -0.023,13.93079 0.255,14.65271 1.0779,2.79765 2.0475,-0.72441 3.0603,-11.1162 z"
     id="path1961"
     sodipodi:nodetypes="ssssssssscsssscsssssssssssssssssssssssssssssscsccsssscsscccsscsssssssssssssscsccccsssssssscssssssscccsssssssssssssssssssssssssssssssssssssscsssssssccssssssssscssssscccssssssscssssssssssssssssscsssssscsssscssssscssccssssssscsccscsssscssssssscsssssscsssssssssscsssssscssssssssssssssssssscs" />
  <path
     style="fill:#ff7f2a;stroke-width:0;stroke-miterlimit:4;stroke-dasharray:none"
     d="m 3.603206,707.30868 c 0,0 -4.8174847,-17.36794 -3.31166468,-119.53475 L 3.0294013,402.01609 16.880341,408.26918 c 7.61802,3.43929 13.85094,8.77941 13.85094,11.86701 0,3.92417 2.80855,4.7441 9.3312,2.72415 5.13216,-1.58937 9.79647,-4.03821 10.36514,-5.44182 0.56866,-1.40361 10.63594,-1.88987 22.37172,-1.08049 19.98153,1.3781 21.19232,0.91754 19.049,-7.24603 -1.76608,-6.7266 0.004,-9.29068 7.74933,-11.22697 5.520969,-1.3802 12.505779,-0.46953 15.521799,2.02354 6.403,5.29301 48.32221,5.27618 48.32221,-0.0189 0,-1.97513 -3.26592,-3.65026 -7.2576,-3.72247 -6.912,-0.1251 -6.912,-0.39264 0,-5.61881 8.5079,-6.43277 9.38785,-13.35409 2.0736,-16.31021 -4.06245,-1.64186 -3.99442,-2.92804 0.31448,-5.94502 3.02416,-2.11746 6.43318,-12.01781 7.57561,-22.00083 1.9484,-17.02596 5.68083,-28.97087 14.36658,-45.9774 2.01483,-3.94508 3.66333,-11.01501 3.66333,-15.711 0,-8.48728 19.97608,-37.01163 25.92,-37.01193 1.71072,0 3.1104,2.78819 3.1104,6.19602 0,3.40782 2.35044,6.19611 5.2232,6.19611 2.87276,0 7.55418,3.71768 10.40315,8.26148 2.84896,4.54379 9.59644,8.26148 14.99439,8.26148 5.39795,0 15.64646,1.16177 22.77446,2.58171 l 12.96,2.58172 v 51.11791 c 0,48.09307 4.0415,64.42719 10.04558,40.60003 l 2.65035,-10.51799 12.3632,8.76846 c 6.79976,4.82259 11.37769,10.35664 10.17319,12.2979 -4.01074,6.46375 5.95222,8.69834 20.69916,4.6427 8.70978,-2.39535 14.57092,-2.47962 14.57092,-0.20946 0,2.08877 2.85793,3.79776 6.35096,3.79776 3.49303,0 7.42517,2.78829 8.73811,6.19611 2.87292,7.45699 14.37941,8.37782 12.90453,1.03269 -0.57024,-2.83988 2.69568,-5.16343 7.2576,-5.16343 7.98342,0 8.4294,-3.94926 11.89504,-105.33429 l 3.60064,-105.33428 10.26793,-7.71437 c 8.40049,-6.31135 12.11808,-6.8747 20.44089,-3.09765 20.04437,9.09655 21.15221,7.36007 24.06699,-37.72339 3.68022,-56.923184 5.51001,-65.059166 14.63194,-65.059166 4.13662,0 8.59536,-2.78829 9.90832,-6.196111 1.31293,-3.407822 0.6067,-6.196112 -1.56938,-6.196112 -2.17612,0 -0.22644,-9.758915 4.33237,-21.686389 5.89396,-15.420357 6.47561,-19.36962 2.0131,-13.668039 -3.45172,4.410028 -6.27584,5.804173 -6.27584,3.098056 0,-2.706217 -3.26592,-5.071293 -7.2576,-5.255758 -4.88382,-0.225801 -3.45262,-2.012681 4.37575,-5.463331 l 11.63336,-5.1277886 -9.55976,-4.5840346 -9.55975,-4.58393505 10.96109,-0.27958597 c 6.30686,-0.16085905 12.01535,2.45691032 13.44398,6.16503512 1.36555,3.5444768 3.72037,43.3345311 5.2329,88.4223761 l 2.75001,81.977953 11.79961,2.35053 11.79961,2.35053 v 61.80663 61.80653 l 20.736,11.24121 20.736,11.24111 v 50.53584 c 0,41.11019 1.16026,50.97927 6.2208,52.91356 4.79275,1.8318 6.2208,-0.91147 6.2208,-11.95029 0,-11.37059 1.64204,-14.328 7.9552,-14.328 15.14806,0 21.0752,-4.80765 21.0752,-17.09459 0,-7.72362 2.61721,-13.05229 7.2576,-14.77632 3.99168,-1.48299 9.69624,-6.07171 12.67675,-10.19717 3.12524,-4.32567 10.58618,-7.50081 17.6256,-7.50081 9.90318,0 12.20645,-1.7583 12.20645,-9.31847 0,-12.04999 19.86032,-21.12543 44.22159,-20.20759 l 17.98641,0.6776 V 293.0434 c 0,-19.299 1.72764,-33.07929 4.1472,-33.07929 2.28096,0 4.1472,-7.43538 4.1472,-16.52297 0,-21.0061 5.71961,-21.0061 23.77175,0 9.05873,10.5411 17.71315,16.52297 23.90504,16.52297 20.46283,0 20.83429,1.02352 19.47272,53.64883 l -1.27928,49.44478 16.92323,2.69546 c 9.30772,1.4824 17.92507,4.31003 19.14961,6.28347 1.22454,1.97353 11.16903,3.5882 22.09881,3.5882 29.06491,0 44.59936,6.51992 47.32312,19.86186 2.35918,11.55635 23.51533,24.50944 31.75084,19.43984 2.51067,-1.54544 4.24416,-22.75882 4.24416,-51.93775 v -49.32506 h 41.472 41.47202 l 0.6108,50.60157 0.6107,50.60158 4.0374,-43.05853 c 5.3315,-56.85944 10.6629,-63.44391 51.3906,-63.4698 15.6025,-0.01 34.4334,1.39514 41.8465,3.12245 l 13.4784,3.14039 0.5659,37.74052 0.5659,37.74052 4.6181,-39.24203 c 2.5399,-21.58311 6.1279,-41.56558 7.9733,-44.40547 3.59,-5.52478 38.7386,-6.44801 56.7792,-1.49126 7.7867,2.13938 10.6837,6.04561 11.636,15.68959 0.8484,8.59196 3.9361,13.53606 9.3312,14.94126 7.5369,1.96308 8.0632,6.17012 8.0632,64.44801 0,49.89319 1.1296,62.34787 5.6548,62.34787 4.2389,0 6.4022,-11.11143 8.6392,-44.37389 1.6413,-24.40566 4.9926,-45.61027 7.4474,-47.12134 7.7479,-4.7694 15.5834,1.11555 15.5834,11.70426 0,8.90611 1.7113,10.10802 13.4784,9.46638 28.5215,-1.5554 27.9936,-2.02473 27.9936,24.88644 0,22.03062 0.9216,24.78444 8.2944,24.78444 5.5296,0 8.2944,-2.75382 8.2944,-8.26148 0,-4.54379 1.8662,-8.26148 4.1472,-8.26148 2.281,0 4.1472,3.51619 4.1472,7.81367 0,8.66218 6.8276,11.13971 42.068,15.26507 21.7985,2.55183 23.2028,2.16418 25.69,-7.09164 1.4472,-5.38504 2.6566,-18.62041 2.6878,-29.41201 0.042,-13.93577 1.7209,-19.62102 5.8004,-19.62102 3.1591,0 8.8009,-4.64708 12.5372,-10.32685 3.7364,-5.67977 9.5497,-10.32685 12.9186,-10.32685 4.8845,0 6.1252,-6.6006 6.1252,-32.58626 v -32.58616 l 14.9976,-2.80243 c 8.2487,-1.54126 26.9111,-1.5316 41.472,0.0219 l 26.4744,2.82395 v 59.41446 59.41456 h 10.4717 c 8.2943,0 10.984,-2.55134 12.9354,-12.27001 2.8594,-14.23996 11.7883,-18.19231 32.3988,-14.34116 12.6299,2.36 14.6965,4.35515 14.6965,14.18827 0,10.1138 2.1665,11.98554 18.6624,16.12276 17.9307,4.49708 18.6649,5.28554 18.7259,20.11136 0.033,8.48698 1.8726,18.21911 4.0837,21.62693 2.6801,4.13074 4.0414,4.47497 4.0837,1.03268 0.033,-2.83988 3.6134,-5.16342 7.9522,-5.16342 8.3914,0 16.5919,-17.23852 17.4872,-36.76033 0.2708,-5.90876 2.2795,-0.98428 4.4635,10.9432 2.9744,16.24427 5.7648,21.68639 11.1195,21.68639 3.9317,0 9.2255,2.06865 11.7639,4.59698 6.2349,6.21015 14.8104,0.33586 12.4781,-8.54734 -2.1864,-8.32752 9.2489,-16.69189 22.8708,-16.72875 5.1631,-0.013 14.1044,-2.47743 19.8695,-5.47438 19.0408,-9.89797 49.1849,-15.69377 57.7837,-11.11014 4.3517,2.31976 11.6416,4.2177 16.1998,4.2177 4.6652,0 9.4466,3.63721 10.9392,8.32144 4.2406,13.30778 10.3489,5.13803 10.3489,-13.84145 0,-13.97192 2.3336,-19.46434 11.7768,-27.71775 6.4773,-5.66105 12.8618,-13.04562 14.1878,-16.41012 1.8976,-4.81461 2.4807,-4.57795 2.7384,1.11167 0.1978,4.36631 3.6119,7.2288 8.6218,7.2288 4.5619,0 8.2944,1.64206 8.2944,3.64896 0,2.0069 3.2659,4.58433 7.2576,5.72748 3.9917,1.14315 10.3257,3.34208 14.0756,4.88643 6.0618,2.49645 7.117,-3.52237 9.514,-54.26368 1.6649,-35.24566 4.9898,-62.22745 8.6941,-70.55338 3.2989,-7.41495 7.3297,-21.3562 8.9573,-30.98056 2.8429,-16.81171 3.0488,-17.01221 5.2437,-5.10655 2.0558,11.15087 4.0165,12.51792 19.5727,13.64693 15.2281,1.10529 17.5057,0.12081 19.1146,-8.26149 1.4999,-7.81486 1.9437,-7.30071 2.4823,2.87604 0.3608,6.81575 4.3474,20.49524 8.8592,30.39898 7.0988,15.58221 8.2033,27.0788 8.2033,85.38468 v 67.37793 l 13.4784,3.18042 c 7.4131,1.74933 15.3446,2.56359 17.6256,1.80949 2.281,-0.75409 7.7407,-1.19912 12.1328,-0.98896 4.3921,0.21027 10.3979,-2.78002 13.3465,-6.64472 3.5634,-4.67059 5.4051,-5.23464 5.4928,-1.6822 0.1485,6.01434 13.0134,5.13185 17.694,-1.21376 1.6758,-2.27195 3.0755,-11.15973 3.1104,-19.7507 0.042,-10.02884 2.2902,-16.47097 6.2843,-17.99759 3.4214,-1.30769 6.2208,-5.89641 6.2208,-10.19717 0,-8.06994 2.1292,-8.68031 31.104,-8.91717 61.7539,-0.50479 80.8704,1.21934 80.8704,7.29374 0,3.40782 2.6921,6.19611 5.9823,6.19611 4.0732,0 6.3894,5.60248 7.2576,17.55565 1.1105,15.28729 2.615,17.6939 11.6433,18.62568 5.7024,0.58856 12.7115,-0.45717 15.5758,-2.32374 7.6966,-5.01581 13.9201,-79.62612 12.8163,-153.64907 -0.9405,-63.07846 -0.82,-64.04601 8.1362,-65.34643 5,-0.726 9.0909,-3.04955 9.0909,-5.16342 0,-2.11398 2.7994,-3.84349 6.2208,-3.84349 3.4214,0 6.2208,-1.94764 6.2208,-4.32795 0,-2.38042 4.6656,-8.6348 10.368,-13.89862 5.7024,-5.26383 10.5845,-14.0045 10.8491,-19.42381 0.3417,-7.0014 1.03,-7.76097 2.3777,-2.62434 2.2982,8.7593 9.5828,9.64467 9.5828,1.16456 0,-3.33521 5.1322,-8.83729 11.4048,-12.22678 8.5128,-4.59997 9.5024,-6.20458 3.9024,-6.32809 -4.1263,-0.0906 -6.3993,-1.94296 -5.0511,-4.1157 3.7942,-6.11483 15.101,0.01 13.9599,7.55689 -0.5587,3.69617 0.3317,11.83215 1.9784,18.07986 2.2505,8.53838 5.5493,11.35954 13.283,11.35954 8.531,0 10.289,1.99814 10.289,11.6942 0,20.69106 9.6394,22.50592 108.434,20.41575 48.7069,-1.03049 91.8239,-3.29915 95.8156,-5.04151 6.8897,-3.00732 7.2576,22.39786 7.2576,501.22444 v 0 L 1345.9258,710.65596 H 76.197502 Z M 1544.4594,445.84705 c 0,-9.08759 -1.8662,-16.52297 -4.1473,-16.52297 -2.281,0 -4.1472,7.43538 -4.1472,16.52297 0,9.08759 1.8662,16.52296 4.1472,16.52296 2.281,0 4.1473,-7.43537 4.1473,-16.52296 z M 159.29448,421.50454 c 0,-2.02882 -3.06333,-4.85964 -6.8074,-6.29063 -5.69191,-2.17554 -5.94849,-1.57114 -1.56579,3.6888 5.97249,7.16784 8.37319,7.91376 8.37319,2.60183 z m 128.5632,-27.29175 c 0,-3.40783 -1.86624,-6.19612 -4.1472,-6.19612 -2.28096,0 -4.1472,2.78829 -4.1472,6.19612 0,3.40782 1.86624,6.19611 4.1472,6.19611 2.28096,0 4.1472,-2.78829 4.1472,-6.19611 z M 2438.1809,335.59336 c 11.5087,-1.25869 23.0429,-5.15576 25.9201,-8.75771 3.3092,-4.14289 5.184,-20.39543 5.184,-44.94242 v -38.45248 h 14.5152 c 12.5909,0 14.5151,-1.32542 14.5151,-9.99866 0,-7.75092 2.7969,-10.61053 12.4416,-12.72042 16.5296,-3.61609 15.8839,-10.24548 -1.0367,-10.64558 -58.8561,-1.39185 -121.5847,1.52761 -124.3599,5.78794 -1.7403,2.67165 -2.6983,30.79977 -2.1286,62.50683 1.0349,57.60537 1.0436,57.65139 11.4037,60.5095 5.7024,1.57323 13.1674,1.98738 16.5888,0.92053 3.4214,-1.06685 15.552,-2.9603 26.9567,-4.20753 z"
     id="path1464"
     sodipodi:nodetypes="ssccsssssscsssssssscssssscsscscssssssscsssssscsscscccssscccccccsssssssssscsssssscsssssscccccssscccsssssssssssssssssscsssscsccccssssscscsssssscssssssssssssssssssssscsssssscssssssssssssssssssssssssssscccsssssssssssssssssscsssssssss" />
</svg>
