<?xml version="1.0" encoding="UTF-8" standalone="no"?>
<svg
   id="svg2"
   viewBox="0 0 2585.4065 710.65595"
   version="1.0"
   sodipodi:docname="bg2_light.svg"
   inkscape:version="1.1.1 (c3084ef, 2021-09-22)"
   width="2585.4065"
   height="710.65594"
   xmlns:inkscape="http://www.inkscape.org/namespaces/inkscape"
   xmlns:sodipodi="http://sodipodi.sourceforge.net/DTD/sodipodi-0.dtd"
   xmlns="http://www.w3.org/2000/svg"
   xmlns:svg="http://www.w3.org/2000/svg"
   xmlns:rdf="http://www.w3.org/1999/02/22-rdf-syntax-ns#"
   xmlns:cc="http://creativecommons.org/ns#"
   xmlns:dc="http://purl.org/dc/elements/1.1/">
  <defs
     id="defs1332" />
  <sodipodi:namedview
     id="namedview1330"
     pagecolor="#ffffff"
     bordercolor="#666666"
     borderopacity="1.0"
     inkscape:pageshadow="2"
     inkscape:pageopacity="0.0"
     inkscape:pagecheckerboard="0"
     showgrid="false"
     inkscape:zoom="1.006613"
     inkscape:cx="746.56298"
     inkscape:cy="474.36304"
     inkscape:window-width="1296"
     inkscape:window-height="847"
     inkscape:window-x="0"
     inkscape:window-y="25"
     inkscape:window-maximized="0"
     inkscape:current-layer="svg2" />
  <metadata
     id="metadata1327">
    <rdf:RDF>
      <cc:Work>
        <dc:format>image/svg+xml</dc:format>
        <dc:type
           rdf:resource="http://purl.org/dc/dcmitype/StillImage" />
        <cc:license
           rdf:resource="http://creativecommons.org/licenses/publicdomain/" />
        <dc:publisher>
          <cc:Agent
             rdf:about="http://openclipart.org/">
            <dc:title>Openclipart</dc:title>
          </cc:Agent>
        </dc:publisher>
        <dc:date>2007-11-09T09:18:48</dc:date>
        <dc:description>Silhouette of the city of Melbourne in Australia showing a line of buildings.</dc:description>
        <dc:source>http://openclipart.org/detail/8115/city-skyline-by-rgesthuizen-8115</dc:source>
        <dc:creator>
          <cc:Agent>
            <dc:title>rgesthuizen</dc:title>
          </cc:Agent>
        </dc:creator>
        <dc:subject>
          <rdf:Bag>
            <rdf:li>city</rdf:li>
            <rdf:li>clip art</rdf:li>
            <rdf:li>clipart</rdf:li>
            <rdf:li>how i did it</rdf:li>
            <rdf:li>image</rdf:li>
            <rdf:li>media</rdf:li>
            <rdf:li>melbourne</rdf:li>
            <rdf:li>png</rdf:li>
            <rdf:li>public domain</rdf:li>
            <rdf:li>silhouette</rdf:li>
            <rdf:li>skyline</rdf:li>
            <rdf:li>svg</rdf:li>
          </rdf:Bag>
        </dc:subject>
      </cc:Work>
      <cc:License
         rdf:about="http://creativecommons.org/licenses/publicdomain/">
        <cc:permits
           rdf:resource="http://creativecommons.org/ns#Reproduction" />
        <cc:permits
           rdf:resource="http://creativecommons.org/ns#Distribution" />
        <cc:permits
           rdf:resource="http://creativecommons.org/ns#DerivativeWorks" />
      </cc:License>
    </rdf:RDF>
  </metadata>
  <path
     style="fill:#000000;stroke-width:0"
     d="M 26.82711,705.28457 5.6537735,703.41149 4.1413923,665.60196 C 3.3095827,644.80672 3.0585232,577.1077 3.5834822,515.15972 l 0.954471,-112.63271 11.7385608,5.98854 c 6.456208,3.29373 13.000553,8.24363 14.542991,10.99982 2.06937,3.69778 4.688521,4.38509 9.992687,2.62229 3.95354,-1.31393 17.396827,-3.2191 29.873971,-4.23376 21.86787,-1.77832 22.719719,-2.1395 23.628878,-10.01844 1.116917,-9.67942 8.617609,-12.87768 20.027569,-8.53962 4.48709,1.70599 17.59772,3.1018 29.13476,3.1018 16.6292,0 20.97642,-0.94028 20.97642,-4.53715 0,-2.49542 -2.382,-4.57852 -5.29333,-4.62912 -5.04127,-0.0877 -5.04127,-0.23866 0,-3.17506 5.80561,-3.38145 7.34535,-17.9063 1.89821,-17.9063 -2.46569,0 -2.44021,-1.15061 0.0931,-4.20299 1.9185,-2.31168 5.47757,-13.74413 7.90903,-25.4055 2.43147,-11.66136 7.15359,-27.57772 10.49361,-35.36969 3.34001,-7.79194 6.07275,-16.15027 6.07275,-18.57405 0,-6.34609 10.42013,-25.63119 18.438,-34.12422 5.53642,-5.86451 7.19795,-6.39998 8.58149,-2.76556 0.94367,2.47888 6.47975,8.65531 12.30242,13.7254 8.16908,7.11323 15.33131,9.95671 31.36355,12.45165 11.42729,1.77832 21.2094,3.66584 21.73804,4.19447 0.52864,0.52864 1.3178,27.18363 1.75368,59.23332 0.67566,49.68054 1.45616,58.14431 5.29367,57.40527 3.03106,-0.58372 4.72251,-5.17344 5.1789,-14.05284 0.88333,-17.18579 5.09269,-21.4612 13.59163,-13.80492 3.55748,3.20473 7.70981,9.07462 9.22743,13.04416 2.54403,6.65439 3.94317,7.07716 17.93672,5.41983 16.37685,-1.9396 28.9082,1.85848 35.49552,10.75814 4.85254,6.55594 12.68374,7.00535 12.68374,0.72791 0,-2.53659 3.2956,-5.86501 7.32358,-7.39642 6.10742,-2.32205 7.61336,-5.44896 9.06857,-18.8299 1.43335,-13.17967 7.80595,-165.37417 7.80595,-186.42627 0,-8.87343 19.00083,-20.04239 26.90235,-15.81362 7.28154,3.89695 20.52456,4.18696 22.8036,0.49937 0.91674,-1.48329 3.08132,-20.19901 4.81015,-41.59048 3.97826,-49.22333 6.95197,-60.86557 15.87039,-62.13307 5.51532,-0.78384 6.82798,-3.03903 7.20038,-12.37059 0.25045,-6.2766 2.63249,-16.853 5.29334,-23.50312 6.04762,-15.11454 6.0259,-15.77081 -0.45544,-13.75397 -2.91133,0.90594 -7.26406,0.41062 -9.67274,-1.10072 -3.42642,-2.14995 -2.60368,-3.19355 3.78096,-4.796 9.42679,-2.36597 10.40001,-5.83674 2.86702,-10.22431 -4.64192,-2.70366 -4.68751,-3.0944 -0.37035,-3.17506 2.70761,-0.0506 6.32538,1.60945 8.03945,3.68897 2.51443,3.05047 9.72328,123.41502 9.72328,162.34689 0,9.59828 0.89406,10.36682 15.88,13.65051 l 8.3181,1.82265 v 61.78506 61.78505 l 21.17334,11.12629 21.17333,11.12628 v 49.62882 c 0,42.71473 0.67461,49.88774 4.8424,51.48705 5.95739,2.28606 10.17355,-3.85312 10.2351,-14.9033 0.0369,-6.62587 1.44778,-8.3181 6.93518,-8.3181 10.32106,0 20.33399,-8.33627 20.33399,-16.92908 0,-10.54532 22.45251,-30.95868 36.64557,-33.31736 8.51153,-1.41453 11.86342,-3.91683 15.12382,-11.29056 5.65809,-12.79644 15.46763,-17.00924 39.72967,-17.06223 l 20.41715,-0.0446 0.13279,-26.46667 c 0.0756,-15.08821 2.00671,-31.66825 4.49162,-38.56572 2.39733,-6.65448 4.37931,-16.29591 4.40435,-21.4254 0.0242,-5.12949 0.94827,-10.22907 2.05161,-11.3324 1.10334,-1.10333 9.84971,5.47552 19.4364,14.61968 14.26133,13.60299 19.33712,16.62574 27.91795,16.62574 6.77301,0 11.1379,1.69463 12.3236,4.78453 1.00979,2.63149 1.83597,25.70925 1.83597,51.28389 v 46.49936 l 11.34286,1.85191 c 6.23858,1.01856 16.10686,3.7038 21.92953,5.9672 5.82267,2.26339 20.3856,4.80955 32.36205,5.65815 26.40094,1.8706 32.45709,4.82873 39.94825,19.51256 6.53966,12.81879 17.09499,19.7333 27.81163,18.21862 7.18895,-1.01607 7.28266,-1.48748 9.97425,-50.17811 l 2.71714,-49.15239 h 38.87334 38.87327 v 50.41272 c 0,27.72696 0.9178,49.49494 2.0395,48.37321 1.1217,-1.12171 3.7915,-19.06741 5.9329,-39.87932 4.6339,-45.03686 9.4265,-57.19178 24.5133,-62.17087 11.1025,-3.66414 64.0525,-2.45953 74.0464,1.68455 4.4463,1.84368 5.3257,7.50144 6.0496,38.92182 0.4658,20.22051 1.7239,34.72285 2.7957,32.22742 1.0719,-2.49542 4.088,-20.76184 6.7026,-40.59206 2.8157,-21.35489 6.3375,-37.05972 8.6379,-38.51941 6.0675,-3.84989 45.3894,-2.89367 53.6879,1.30557 4.8352,2.4467 8.3974,7.74872 10.131,15.07923 1.4706,6.21813 3.5594,11.32656 4.6418,11.35202 1.0825,0.0242 4.0098,1.33462 6.5053,2.90916 3.6981,2.33345 4.8168,14.02585 6.0495,63.22951 0.8318,33.20167 2.5559,61.40667 3.8314,62.67776 5.4958,5.47718 9.2426,-6.78306 12.9472,-42.36591 2.1763,-20.9031 4.8523,-40.8267 5.9466,-44.27468 2.7023,-8.51422 11.7875,-6.30963 13.1056,3.1802 1.76,12.67149 6.4755,15.92072 20.346,14.01953 18.5436,-2.54167 22.102,1.58023 23.1223,26.78385 0.7831,19.3449 1.4444,21.25676 7.6579,22.13926 5.1022,0.72468 7.6354,-1.16411 10.142,-7.5619 3.2534,-8.30394 3.4079,-8.35433 5.8838,-1.91985 3.3637,8.74178 10.0675,11.94309 30.1067,14.37718 9.1499,1.11139 20.0391,2.62683 24.1981,3.36765 13.1611,2.34425 16.2215,-2.44171 18.4976,-28.92728 2.0849,-24.26074 2.3,-24.77205 15.0339,-35.72974 7.1053,-6.11422 15.058,-12.7066 17.6727,-14.64971 3.6316,-2.69887 4.9973,-10.66634 5.7848,-33.74763 0.9542,-27.96874 1.5163,-30.34487 7.5619,-31.96669 8.7358,-2.34349 40.1377,-2.29498 57.5298,0.0889 l 14.0336,1.92354 v 58.39321 c 0,36.59322 1.1568,59.10815 3.0986,60.30823 1.7042,1.05325 7.207,1.01266 12.2284,-0.0901 7.0357,-1.54529 9.5432,-4.07208 10.9319,-11.01564 2.5538,-12.76846 12.3655,-18.3417 27.9138,-15.85541 12.9126,2.06479 18.4216,7.72969 18.4216,18.94297 0,4.69391 3.8682,7.26085 17.3924,11.5417 l 17.3924,5.50528 1.8932,17.62194 c 2.1456,19.9719 5.7705,25.84178 11.6119,18.8034 2.1295,-2.56594 5.8234,-4.66533 8.2087,-4.66533 2.3853,0 7.2367,-6.46543 10.7808,-14.36762 l 6.444,-14.36762 2.8154,11.57407 c 1.5485,6.36576 5.0376,12.27403 7.7536,13.12952 2.716,0.8555 7.9089,2.97401 11.5398,4.70783 9.1494,4.369 16.084,0.93202 16.084,-7.97164 0,-8.18661 9.9104,-16.90264 19.2188,-16.90264 3.1756,0 18.0313,-4.20866 33.0127,-9.35257 27.0177,-9.27661 34.2219,-9.78525 58.1724,-4.10714 4.9908,1.1832 12.0274,5.71653 15.6368,10.07406 l 6.5626,7.92279 3.2679,-8.51501 c 1.7974,-4.68339 3.2679,-13.22096 3.2679,-18.97248 0,-8.08595 2.8929,-13.59574 12.7567,-24.29677 7.0162,-7.61166 13.2548,-12.34527 13.8635,-10.51907 0.6087,1.82617 3.0902,3.32032 5.5144,3.32032 2.4241,0 8.1504,2.76723 12.7251,6.14943 4.5746,3.38217 12.3433,6.44474 17.2638,6.80571 10.1592,0.74525 9.462,4.0204 16.2807,-76.47515 3.7331,-44.07018 15.2264,-88.61937 20.0362,-77.66298 2.427,5.52837 5.7921,6.73089 21.0377,7.51774 l 18.1486,0.93666 7.5042,21.74905 c 6.94,20.11406 7.5842,26.80884 8.5697,89.05555 l 1.0655,67.30646 8.0665,2.23448 c 14.4224,3.99511 42.898,1.67448 49.1767,-4.00762 3.3662,-3.04633 5.7736,-3.76831 5.7736,-1.73147 0,4.12181 8.7827,4.54304 14.8347,0.71152 2.3364,-1.4792 5.2973,-10.42164 6.5797,-19.87215 1.2825,-9.45051 4.3603,-18.76829 6.8397,-20.70616 2.4794,-1.9379 4.9794,-6.24574 5.5556,-9.57298 1.4755,-8.52051 26.939,-11.86418 69.88,-9.17616 29.984,1.87696 34.9412,2.98901 42.5584,9.54709 6.0926,5.24539 9.096,11.15956 10.239,20.16206 0.8896,7.00669 2.9615,14.44082 4.6042,16.52035 3.9111,4.95138 21.774,4.87077 25.9134,-0.11706 6.6474,-8.00963 10.4575,-48.44943 12.2727,-130.26079 l 1.8693,-84.2501 13.4598,-7.19289 c 7.4029,-3.95608 14.7642,-9.60011 16.3586,-12.54229 5.8023,-10.70765 21.3487,-26.5003 25.2291,-25.62879 2.1892,0.49167 5.1824,-2.23061 6.6516,-6.04953 1.4692,-3.81891 6.9037,-10.04679 12.0766,-13.83974 l 9.4053,-6.89615 v 8.96793 c 0,15.27047 4.88,23.74803 14.9424,25.95811 7.0661,1.55199 9.2556,3.68559 9.2556,9.01936 0,3.84257 2.61,10.19984 5.8,14.12729 l 5.7999,7.14081 98.1977,-0.21077 98.1976,-0.21076 1.8428,15.33456 c 1.0136,8.43401 1.8547,119.65359 1.8691,247.15461 l 0.027,231.82003 -58.2266,1.82868 c -32.0247,1.00576 -172.5627,3.26913 -312.3067,5.02966 -139.7441,1.76057 -330.3041,4.63327 -423.4668,6.38379 -183.1471,3.44134 -1728.592576,5.98574 -1763.436323,2.90332 z M 1545.423,455.79951 c 2.5521,-10.16825 0.4458,-26.97531 -3.5445,-28.28279 -4.372,-1.43262 -7.5762,14.67732 -5.2413,26.35188 2.1752,10.87577 6.3125,11.78508 8.7858,1.93091 z M 161.42903,419.40745 c 0,-2.31745 -2.23653,-5.07177 -4.97007,-6.12073 -6.28927,-2.41343 -7.7776,-0.92509 -5.36418,5.36418 2.31927,6.04393 10.33425,6.6307 10.33425,0.75655 z M 2456.997,330.60481 c 12.9056,-6.31394 14.9109,-14.10706 15.1761,-58.97814 l 0.1743,-29.49143 h 12.9859 c 11.9918,0 13.2075,-0.74147 15.88,-9.68522 2.2063,-7.38358 5.2303,-10.27941 12.7246,-12.18554 14.5428,-3.69886 12.4754,-10.63433 -3.9022,-13.0903 -16.1721,-2.42516 -121.2791,2.59821 -124.6229,5.9561 -1.2627,1.26805 -2.086,28.09314 -1.8296,59.61131 0.3471,42.64628 1.4946,58.54467 4.4858,62.14883 3.373,4.06431 8.3687,4.5343 31.0688,2.92301 15.9655,-1.13326 31.4789,-4.08709 37.8592,-7.20862 z"
     id="path4045" />
  <path
     style="fill:#000000;stroke-width:0"
     d="m 901.42052,400.35247 c -0.61107,-1.09277 -1.67224,-3.77503 -2.35817,-5.96058 -1.81772,-5.79179 -5.0617,-9.62178 -10.79059,-12.73982 -7.06305,-3.8442 -16.60385,-5.58705 -36.03107,-6.58191 -15.90253,-0.81436 -17.03707,-1.01032 -23.1821,-4.00397 -6.1959,-3.01844 -18.40396,-6.08431 -29.99274,-7.53224 l -5.46147,-0.68237 0.68248,-18.99991 c 1.2382,-34.47095 1.07996,-71.23697 -0.32658,-75.87646 -1.77083,-5.84114 -4.77985,-7.53553 -14.76029,-8.31158 -10.83623,-0.8426 -14.34523,-2.9755 -27.13955,-16.49646 -11.57167,-12.22887 -17.24828,-16.55112 -20.62447,-15.70376 -1.71978,0.43164 -2.2472,0.14781 -2.21264,-1.1907 0.0283,-1.09566 1.79734,-2.58652 4.698,-3.95923 4.11523,-1.94749 4.75267,-2.02303 5.51881,-0.65403 3.77091,6.73825 30.8887,33.71784 34.90332,34.72545 1.45514,0.36521 3.5924,0.2416 4.74947,-0.27471 1.41196,-0.63003 3.30575,-0.52461 5.75889,0.32056 2.01032,0.69261 5.95263,1.56407 8.76069,1.93657 l 5.10557,0.67728 v 50.53697 50.53697 h 2.79319 c 1.53626,0 6.11846,0.85345 10.18266,1.89658 4.06421,1.04312 9.84822,2.2122 12.85334,2.59796 6.7074,0.86099 8.77365,1.89028 9.93695,4.95001 1.2167,3.20017 4.51042,3.6911 22.12624,3.29797 13.17182,-0.29395 14.68855,-0.51245 16.046,-2.3115 0.82468,-1.09298 1.51336,-1.42819 1.53074,-0.74508 0.0631,2.48088 1.98484,1.16147 2.89389,-1.98686 l 0.93223,-3.22865 0.0896,2.79725 c 0.1297,4.04947 1.82334,6.63938 4.34663,6.64689 1.21014,0.004 3.52059,0.87688 5.13434,1.94064 1.61374,1.06374 5.29837,2.22948 8.18807,2.59053 5.08941,0.63587 5.28666,0.77775 6.29672,4.52884 0.57351,2.12981 0.91227,7.33149 0.75281,11.5593 -0.23701,6.28379 -0.49273,7.32424 -1.40097,5.70005 z"
     id="path4121" />
  <path
     style="fill:#000000;stroke-width:0"
     d="m 831.50129,371.6053 c -4.72038,-2.5626 -15.43802,-5.62241 -26.15147,-7.46607 -5.91431,-1.01779 -10.86175,-2.00352 -10.99431,-2.19054 -0.13256,-0.187 0.0872,-10.17497 0.48828,-22.19548 1.01537,-30.42825 0.99224,-59.3321 -0.054,-67.45271 -1.24097,-9.63245 -3.03952,-11.22598 -14.63713,-12.9686 -4.94441,-0.74294 -10.50141,-2.12079 -12.3489,-3.06191 -1.84749,-0.94112 -8.72359,-6.94212 -15.28023,-13.33556 -14.03888,-13.68944 -16.85826,-15.93557 -20.00259,-15.93557 -3.56805,0 -2.81916,-1.70693 1.77781,-4.05213 3.78449,-1.9307 4.20415,-1.96852 5.05109,-0.45513 1.98935,3.55476 17.58301,20.06324 25.57714,27.07763 7.97041,6.99358 8.64705,7.37329 12.41788,6.96864 2.19348,-0.23539 6.89393,0.2105 10.44545,0.99085 3.55151,0.78036 7.46314,1.61511 8.69251,1.85501 l 2.23522,0.43619 v 50.04161 50.04161 l 2.23522,0.51413 c 1.22937,0.28277 8.49383,1.73058 16.14324,3.21735 12.97177,2.52125 14.11767,2.92858 17.02231,6.05087 3.36082,3.61267 2.14429,4.50492 -2.61756,1.91981 z"
     id="path4160" />
  <path
     style="fill:#000000;stroke-width:0"
     d="m 792.90847,316.90431 c -0.0887,-16.93799 -0.39376,-35.26678 -0.67793,-40.73065 -0.40294,-7.74755 -0.27531,-9.38761 0.57982,-7.45072 1.70766,3.86789 2.10502,21.84411 1.1419,51.65838 l -0.88253,27.31934 z"
     id="path4199" />
  <path
     style="fill:#000000;stroke-width:0"
     d=""
     id="path4238" />
  <path
     style="fill:#000000;stroke-width:0"
     d="m 743.72879,238.37086 c -3.19797,-2.91774 -7.63646,-6.20642 -9.86332,-7.30818 -3.08487,-1.52627 -3.65782,-2.15324 -2.40653,-2.6334 0.91728,-0.35199 3.07877,0.26441 4.89616,1.39625 3.63662,2.26483 14.30959,12.78741 13.62668,13.43468 -0.24118,0.22859 -3.05503,-1.97162 -6.25299,-4.88935 z"
     id="path4277" />
</svg>
