<?xml version="1.0" encoding="UTF-8" standalone="no"?>
<svg
   class="icon icon-tabler icon-tabler-rocket"
   width="18.050318"
   height="18.050318"
   viewBox="0 0 18.050318 18.050318"
   stroke-width="2"
   stroke="currentColor"
   fill="none"
   stroke-linecap="round"
   stroke-linejoin="round"
   version="1.1"
   id="svg4791"
   sodipodi:docname="dark_rocket.svg"
   inkscape:version="1.1.1 (c3084ef, 2021-09-22)"
   xmlns:inkscape="http://www.inkscape.org/namespaces/inkscape"
   xmlns:sodipodi="http://sodipodi.sourceforge.net/DTD/sodipodi-0.dtd"
   xmlns="http://www.w3.org/2000/svg"
   xmlns:svg="http://www.w3.org/2000/svg">
  <defs
     id="defs4795" />
  <sodipodi:namedview
     id="namedview4793"
     pagecolor="#ffffff"
     bordercolor="#666666"
     borderopacity="1.0"
     inkscape:pageshadow="2"
     inkscape:pageopacity="0.0"
     inkscape:pagecheckerboard="0"
     showgrid="false"
     inkscape:zoom="26.041667"
     inkscape:cx="9.0432"
     inkscape:cy="9.0048"
     inkscape:window-width="1296"
     inkscape:window-height="847"
     inkscape:window-x="0"
     inkscape:window-y="25"
     inkscape:window-maximized="0"
     inkscape:current-layer="svg4791" />
  <path
     d="m 1.0503183,10 a 8,8 0 0 1 7,7 6,6 0 0 0 2.9999997,-5 9,9 0 0 0 6,-8 3,3 0 0 0 -3,-3 9,9 0 0 0 -7.9999997,6 6,6 0 0 0 -5,3"
     id="path4785" />
  <path
     d="m 4.0503183,11 a 6,6 0 0 0 -3,6 6,6 0 0 0 6,-3"
     id="path4787" />
  <ellipse
     cx="12.050319"
     cy="6"
     id="circle4789"
     rx="1.2598903"
     ry="1.1446903"
     style="stroke-width:2.40182" />
  <path
     style="fill:#ff7f2a;fill-opacity:1;stroke-width:0"
     d="M 8.5241723,15.08176 C 7.8553793,13.245464 6.5516682,11.590708 4.9024019,10.484769 4.4442468,10.177548 3.4526796,9.673626 3.0045108,9.520249 2.8132249,9.454784 2.6567183,9.38845 2.6567183,9.372838 c 0,-0.0156 0.1285609,-0.1301 0.2856908,-0.254419 C 3.7532523,8.476892 4.669841,8.1122 5.7199463,8.013296 6.0478987,7.982406 6.2698741,7.940146 6.379827,7.887664 6.6299908,7.768257 6.8404816,7.510954 6.9689612,7.167508 7.4008933,6.0128895 8.0343623,5.0201093 8.8934473,4.1514281 10.293583,2.7356521 12.020137,1.9255159 14.065905,1.7244011 c 0.937565,-0.09217 1.873894,0.5910084 2.126787,1.5517762 0.07369,0.2799656 0.07244,0.6088805 -0.0045,1.1662507 -0.411338,2.982111 -2.431286,5.538573 -5.238265,6.629589 -0.395633,0.153775 -0.659537,0.358318 -0.786188,0.609346 -0.05417,0.107361 -0.09353,0.297381 -0.117639,0.567837 -0.06689,0.750446 -0.2199987,1.348877 -0.4950887,1.935049 -0.148828,0.317127 -0.520969,0.897332 -0.743223,1.158757 l -0.131986,0.155247 z M 12.715612,7.909223 C 13.358848,7.718178 13.886478,7.216846 14.109135,6.5851577 14.227461,6.2494612 14.252306,5.70138 14.164633,5.360883 13.826471,4.0475554 12.42148,3.3938134 11.22235,3.9918404 c -0.685844,0.3420427 -1.109335,0.9880732 -1.160912,1.7709598 -0.03956,0.6005106 0.17939,1.1685292 0.619729,1.6077228 0.288252,0.287504 0.553856,0.449664 0.883198,0.539217 0.293243,0.07974 0.881925,0.07947 1.151247,-5.17e-4 z"
     id="path5010" />
  <path
     style="fill:#ff7f2a;fill-opacity:1;stroke-width:0"
     d="m 1.6583184,16.077108 c 0,-0.298032 0.1544773,-1.011099 0.3063135,-1.413944 C 2.130941,14.22192 2.5015728,13.54709 2.7676144,13.201127 3.1085866,12.757723 3.9625681,11.9568 4.0943724,11.9568 c 0.076437,0 0.6145994,0.404059 1.0214993,0.766955 0.2108707,0.188066 0.5488931,0.53699 0.7511608,0.775387 0.3285137,0.387192 0.3620706,0.443526 0.3144512,0.527881 -0.109853,0.194597 -0.9381794,0.954546 -1.3252913,1.215888 -0.8346062,0.56345 -1.8420955,0.921137 -2.9090158,1.032782 l -0.2888582,0.03023 z"
     id="path5086" />
</svg>
