<?xml version="1.0" encoding="UTF-8" standalone="no"?>
<svg
   class="icon icon-tabler icon-tabler-rocket"
   width="18.050318"
   height="18.050318"
   viewBox="0 0 18.050318 18.050318"
   stroke-width="2"
   stroke="currentColor"
   fill="none"
   stroke-linecap="round"
   stroke-linejoin="round"
   version="1.1"
   id="svg4791"
   sodipodi:docname="light_rocket2.svg"
   inkscape:version="1.1.1 (c3084ef, 2021-09-22)"
   xmlns:inkscape="http://www.inkscape.org/namespaces/inkscape"
   xmlns:sodipodi="http://sodipodi.sourceforge.net/DTD/sodipodi-0.dtd"
   xmlns="http://www.w3.org/2000/svg"
   xmlns:svg="http://www.w3.org/2000/svg">
  <defs
     id="defs4795" />
  <sodipodi:namedview
     id="namedview4793"
     pagecolor="#ffffff"
     bordercolor="#666666"
     borderopacity="1.0"
     inkscape:pageshadow="2"
     inkscape:pageopacity="0.0"
     inkscape:pagecheckerboard="0"
     showgrid="false"
     inkscape:zoom="26.041667"
     inkscape:cx="9.0432"
     inkscape:cy="9.0048"
     inkscape:window-width="1296"
     inkscape:window-height="847"
     inkscape:window-x="0"
     inkscape:window-y="26"
     inkscape:window-maximized="0"
     inkscape:current-layer="svg4791" />
  <path
     d="m 1.0503183,10 a 8,8 0 0 1 7,7 6,6 0 0 0 2.9999997,-5 9,9 0 0 0 6,-8 3,3 0 0 0 -3,-3 9,9 0 0 0 -7.9999997,6 6,6 0 0 0 -5,3"
     id="path4785"
     style="fill:#ffffff" />
  <path
     d="m 4.0503183,11 a 6,6 0 0 0 -3,6 6,6 0 0 0 6,-3"
     id="path4787" />
  <path
     style="fill:#ff7f2a;fill-opacity:1;stroke-width:0"
     d="M 8.5241723,15.08176 C 7.8553793,13.245464 6.5516682,11.590708 4.9024019,10.484769 4.4442468,10.177548 3.4526796,9.673626 3.0045108,9.520249 2.8132249,9.454784 2.6567183,9.38845 2.6567183,9.372838 c 0,-0.0156 0.1285609,-0.1301 0.2856908,-0.254419 C 3.7532523,8.476892 4.669841,8.1122 5.7199463,8.013296 6.0478987,7.982406 6.2698741,7.940146 6.379827,7.887664 6.6299908,7.768257 6.8404816,7.510954 6.9689612,7.167508 7.4008933,6.0128895 8.0343623,5.0201093 8.8934473,4.1514281 10.293583,2.7356521 12.020137,1.9255159 14.065905,1.7244011 c 0.937565,-0.09217 1.873894,0.5910084 2.126787,1.5517762 0.07369,0.2799656 0.07244,0.6088805 -0.0045,1.1662507 -0.411338,2.982111 -2.431286,5.538573 -5.238265,6.629589 -0.395633,0.153775 -0.659537,0.358318 -0.786188,0.609346 -0.05417,0.107361 -0.09353,0.297381 -0.117639,0.567837 -0.06689,0.750446 -0.2199987,1.348877 -0.4950887,1.935049 -0.148828,0.317127 -0.520969,0.897332 -0.743223,1.158757 l -0.131986,0.155247 z M 12.715612,7.909223 C 13.358848,7.718178 13.886478,7.216846 14.109135,6.5851577 14.227461,6.2494612 14.252306,5.70138 14.164633,5.360883 13.826471,4.0475554 12.42148,3.3938134 11.22235,3.9918404 c -0.685844,0.3420427 -1.109335,0.9880732 -1.160912,1.7709598 -0.03956,0.6005106 0.17939,1.1685292 0.619729,1.6077228 0.288252,0.287504 0.553856,0.449664 0.883198,0.539217 0.293243,0.07974 0.881925,0.07947 1.151247,-5.17e-4 z"
     id="path5010" />
  <path
     style="fill:#ff7f2a;fill-opacity:1;stroke-width:0"
     d="m 1.6583184,16.077108 c 0,-0.298032 0.1544773,-1.011099 0.3063135,-1.413944 C 2.130941,14.22192 2.5015728,13.54709 2.7676144,13.201127 3.1085866,12.757723 3.9625681,11.9568 4.0943724,11.9568 c 0.076437,0 0.6145994,0.404059 1.0214993,0.766955 0.2108707,0.188066 0.5488931,0.53699 0.7511608,0.775387 0.3285137,0.387192 0.3620706,0.443526 0.3144512,0.527881 -0.109853,0.194597 -0.9381794,0.954546 -1.3252913,1.215888 -0.8346062,0.56345 -1.8420955,0.921137 -2.9090158,1.032782 l -0.2888582,0.03023 z"
     id="path5086" />
  <path
     style="fill:#ffffff;fill-opacity:1;stroke-width:0"
     d="M 1.0738783,17.989327 C 0.60676723,17.934636 0.31727874,17.738502 0.14637302,17.360924 0.06124785,17.172859 0.05764429,17.126141 0.05867771,16.224 0.0596313,15.391557 0.06978302,15.237294 0.14681906,14.884623 0.43524157,13.564226 1.0315887,12.396376 1.8811756,11.488165 2.0140339,11.346139 2.1160006,11.22391 2.1077681,11.216544 2.0778474,11.189772 1.5835856,11.079554 1.1675914,11.006888 0.69185338,10.923787 0.48299612,10.834832 0.3251569,10.648084 0.01585146,10.282128 -0.00432449,9.889369 0.2622954,9.4243795 0.8195184,8.4525742 1.7991306,7.4970958 2.8334363,6.9165819 3.4968192,6.544252 4.3943662,6.2233832 5.0556449,6.1221531 L 5.3579451,6.0758761 5.5295148,5.7088673 C 6.7002735,3.2044699 9.0320867,1.206539 11.6928,0.42807602 c 0.9319,-0.2726525 1.665289,-0.38946057 2.4192,-0.38531019 0.453783,0.0024981 0.597329,0.01885167 0.920698,0.10489149 1.897795,0.5049511 3.140453,2.26139078 2.972254,4.20114268 -0.204374,2.3569425 -1.216884,4.5299777 -2.894552,6.212251 -0.746941,0.748992 -1.671766,1.415181 -2.606299,1.877425 -0.508131,0.251334 -0.521307,0.260991 -0.544603,0.399145 -0.349212,2.070897 -1.504256,3.816123 -3.2408944,4.896865 -0.3526152,0.219439 -0.6121409,0.2851 -0.8721404,0.220656 -0.240872,-0.0597 -0.4462978,-0.19643 -0.5870396,-0.390718 C 7.1464527,17.408472 7.1320735,17.357536 6.9894255,16.608 6.9472212,16.38624 6.8943448,16.139645 6.8719223,16.060011 l -0.040768,-0.144789 -0.3147771,0.290005 c -1.0586335,0.975321 -2.4929445,1.622342 -3.9516636,1.782606 -0.4153006,0.04563 -1.1079755,0.04632 -1.4908352,0.0015 z M 2.7233806,16.161226 C 3.5822255,15.970041 4.4177464,15.596945 5.0443058,15.124833 5.4982164,14.782811 6.2208,14.075403 6.2208,13.973047 c 0,-0.105348 -0.5272792,-0.731818 -0.9541993,-1.133703 -0.3571219,-0.33618 -0.8069798,-0.695442 -1.0472421,-0.83634 l -0.1390414,-0.08154 -0.2274401,0.17097 C 3.4532828,12.392815 2.7628452,13.139066 2.5159926,13.53739 1.981177,14.400373 1.6512,15.370002 1.6512,16.078562 v 0.245697 l 0.3168,-0.0327 c 0.17424,-0.01799 0.5141613,-0.07663 0.7553806,-0.130332 z m 6.156058,-0.875752 c 0.669249,-0.853824 1.0274749,-1.73408 1.1638544,-2.8599 0.03219,-0.265746 0.07736,-0.543654 0.100371,-0.617574 0.09728,-0.312483 0.351101,-0.524338 0.899884,-0.751102 2.912021,-1.2032887 4.895145,-3.8482019 5.195514,-6.9293143 0.05345,-0.548268 0.008,-0.8544248 -0.185541,-1.2487935 C 15.817903,2.3985896 15.393293,2.0096031 14.895753,1.8181572 14.152218,1.5320561 12.372631,1.884785 10.981601,2.5939745 9.2370371,3.4834063 7.754857,5.1099057 7.0467137,6.912 6.8843973,7.3250661 6.7790085,7.5134984 6.623972,7.6678529 6.4184628,7.8724581 6.2897944,7.9199616 5.7567901,7.988011 4.90271,8.097052 4.4032911,8.2410662 3.7824,8.5573524 3.3829043,8.7608586 2.6496,9.2826532 2.6496,9.3634153 c 0,0.025526 0.13392,0.095895 0.2976,0.1563752 0.757407,0.2798634 1.6941158,0.7915395 2.352,1.2847775 1.4105019,1.0575 2.5901772,2.627057 3.1857473,4.238632 0.091709,0.24816 0.1811409,0.4512 0.1987369,0.4512 0.017596,0 0.1056857,-0.09402 0.1957544,-0.208926 z"
     id="path5402" />
  <path
     style="fill:#000000;fill-opacity:1;stroke-width:0"
     d="m 1.6902016,16.0416 c 0.0019,-0.696407 0.3944421,-1.769679 0.9644047,-2.636817 0.2100835,-0.31962 0.9638814,-1.102041 1.2691132,-1.317304 l 0.1754298,-0.12372 0.2256254,0.157659 c 0.3519866,0.245957 0.7696181,0.608082 1.1519969,0.998888 0.3793797,0.387742 0.7056284,0.777966 0.7056284,0.843998 0,0.05935 -0.5416589,0.608468 -0.9049757,0.917439 -0.6110869,0.51968 -1.3898226,0.927089 -2.2000566,1.150999 C 2.6200788,16.159115 2.06277,16.2624 1.83817,16.2624 H 1.6896 Z"
     id="path5517" />
  <path
     style="fill:#ffffff;fill-opacity:1;stroke-width:0"
     d="M 8.6186872,15.27549 C 8.2240024,14.198047 7.7089471,13.266739 7.0407994,12.4224 6.4473385,11.672443 5.4006262,10.74724 4.63058,10.291976 4.1930606,10.033308 3.491585,9.6888956 3.0580275,9.5198807 L 2.6792549,9.3722231 2.8276275,9.2444847 C 3.0859374,9.022098 3.6972649,8.62896 3.9947456,8.4939237 4.5480559,8.2427578 4.9945423,8.1240476 5.7566049,8.0254867 6.2953148,7.9558134 6.4539852,7.9017946 6.6361332,7.7260539 6.8074303,7.5607826 6.8865796,7.4263073 7.0475094,7.0271209 7.4920938,5.9243301 8.0451137,5.0748316 8.868586,4.2297496 9.569586,3.5103536 10.228065,3.0219078 11.0784,2.5905559 12.018644,2.1135957 13.393114,1.7472 14.242102,1.7472 c 0.955193,0 1.826681,0.7801612 1.967016,1.7608853 0.04752,0.3320552 -0.04827,1.1359481 -0.212894,1.786698 -0.368461,1.4565346 -1.057548,2.6946965 -2.093826,3.7622192 -0.847846,0.8734088 -1.67239,1.4430885 -2.780171,1.9208285 -0.523217,0.225642 -0.74466,0.366232 -0.892519,0.566645 -0.119925,0.162548 -0.152176,0.289292 -0.224566,0.882535 -0.1345821,1.102911 -0.4763652,1.942595 -1.1404444,2.801813 L 8.6861952,15.45978 Z M 13.027614,7.8035628 C 13.742151,7.4502232 14.159058,6.8323354 14.227346,6.02547 14.344646,4.639483 13.072234,3.5020129 11.736861,3.7991053 10.710639,4.027418 10.052896,4.8443248 10.049808,5.8944 c -0.0017,0.5785559 0.197538,1.0585582 0.613929,1.4790674 0.264985,0.267605 0.49517,0.4196609 0.798161,0.5272493 0.156389,0.055532 0.29376,0.066453 0.732257,0.058219 0.538498,-0.010112 0.540439,-0.010474 0.833459,-0.1553729 z"
     id="path5556" />
  <path
     style="fill:#000000;fill-opacity:1;stroke-width:0"
     d="M 8.5255803,14.9839 C 8.0576751,13.775282 7.3772452,12.704029 6.5111128,11.81237 5.4868951,10.757967 4.5291293,10.109618 3.155341,9.5407173 L 2.7202821,9.3605549 2.886541,9.2254817 C 3.1146446,9.0401645 3.657429,8.6925946 3.936,8.5534644 4.4468854,8.2983072 4.8795161,8.1767201 5.7408,8.0462415 6.049447,7.9994838 6.3480702,7.9312335 6.4419913,7.8859845 6.685718,7.7685627 6.8499663,7.5364351 7.1040157,6.9503631 7.3683337,6.3406034 7.5644429,5.9668212 7.848268,5.5318257 8.4876334,4.5519227 9.5323457,3.5292689 10.49306,2.9428763 11.898421,2.0850848 13.893337,1.581399 14.784,1.8594796 15.465914,2.0723853 16.030829,2.7101965 16.172728,3.4274094 16.265683,3.8972451 16.092015,5.0011009 15.775536,5.952 15.397203,7.088751 14.75814,8.1308947 13.883026,9.0381865 13.136862,9.8117871 12.411024,10.332617 11.4048,10.816457 10.515886,11.243889 10.531276,11.235454 10.347529,11.395905 10.144111,11.573532 10.081688,11.735721 10.00418,12.288 9.8801691,13.171637 9.7352567,13.689871 9.4565595,14.2464 9.3109382,14.537189 8.9887139,15.044132 8.805446,15.27077 L 8.6912913,15.411939 Z M 12.835818,7.9130269 C 13.293077,7.74987 13.781047,7.3212276 13.99644,6.8935154 14.190938,6.507294 14.258107,6.1839176 14.235872,5.7408 14.143771,3.9053058 11.95709,3.0715076 10.652457,4.3744166 c -0.319334,0.3189117 -0.489754,0.6398397 -0.574233,1.0813719 -0.06986,0.3651001 -0.06942,0.5406303 0.0022,0.8802115 0.1418,0.6724032 0.648785,1.2811162 1.285053,1.5429001 0.187567,0.077172 0.276596,0.087188 0.768928,0.086503 0.366977,-5.107e-4 0.606102,-0.018366 0.701418,-0.052376 z"
     id="path5806" />
</svg>
