<?xml version="1.0" encoding="UTF-8" standalone="no"?>
<svg
   class="icon icon-tabler icon-tabler-gas-station"
   width="19"
   height="18"
   viewBox="0 0 19 18"
   stroke-width="2"
   stroke="currentColor"
   fill="none"
   stroke-linecap="round"
   stroke-linejoin="round"
   version="1.1"
   id="svg6433"
   sodipodi:docname="range.svg"
   inkscape:version="1.1.1 (c3084ef, 2021-09-22)"
   xmlns:inkscape="http://www.inkscape.org/namespaces/inkscape"
   xmlns:sodipodi="http://sodipodi.sourceforge.net/DTD/sodipodi-0.dtd"
   xmlns="http://www.w3.org/2000/svg"
   xmlns:svg="http://www.w3.org/2000/svg">
  <defs
     id="defs6437">
    <linearGradient
       id="linearGradient7413"
       inkscape:swatch="solid">
      <stop
         style="stop-color:#000000;stop-opacity:1;"
         offset="0"
         id="stop7411" />
    </linearGradient>
  </defs>
  <sodipodi:namedview
     id="namedview6435"
     pagecolor="#ffffff"
     bordercolor="#666666"
     borderopacity="1.0"
     inkscape:pageshadow="2"
     inkscape:pageopacity="0.0"
     inkscape:pagecheckerboard="0"
     showgrid="false"
     inkscape:zoom="26.041667"
     inkscape:cx="8.544"
     inkscape:cy="10.08"
     inkscape:window-width="1296"
     inkscape:window-height="847"
     inkscape:window-x="141"
     inkscape:window-y="41"
     inkscape:window-maximized="0"
     inkscape:current-layer="svg6433" />
  <path
     stroke="none"
     d="M -2,-3 H 22 V 21 H -2 Z"
     fill="none"
     id="path6421" />
  <path
     d="m 12,8 h 1 a 2,2 0 0 1 2,2 v 3 a 1.5,1.5 0 0 0 3,0 V 6 L 15,3"
     id="path6423"
     style="stroke:#000000;stroke-opacity:1;stroke-width:2;stroke-miterlimit:4;stroke-dasharray:none;stroke-linejoin:round;fill:none;fill-opacity:1" />
  <path
     d="M 2,17 V 3 A 2,2 0 0 1 4,1 h 6 a 2,2 0 0 1 2,2 v 14"
     id="path6425" />
  <line
     x1="1"
     y1="17"
     x2="13"
     y2="17"
     id="line6427" />
  <path
     d="m 16,4 v 1 a 1,1 0 0 0 1,1 h 1"
     id="path6429"
     style="stroke:#00000a;stroke-opacity:1" />
  <line
     x1="2"
     y1="8"
     x2="12"
     y2="8"
     id="line6431" />
  <path
     style="fill:#ff7f2a;fill-opacity:1;stroke-width:0"
     d="M 2.9536,4.9245831 C 2.9536,3.3887818 2.966833,2.7238196 2.999631,2.6114222 3.05791,2.4117066 3.3063304,2.1198692 3.5161371,2.0046448 l 0.1615858,-0.088742 3.2251908,-0.011174 c 3.5885423,-0.012433 3.4806663,-0.019688 3.7933773,0.2551327 0.09166,0.080552 0.205676,0.2213742 0.25337,0.3129376 0.08611,0.1653148 0.08679,0.182006 0.09777,2.3868398 L 11.058484,7.08 H 7.0060411 2.9536 Z"
     id="path6598" />
  <path
     style="fill:#ff7f2a;fill-opacity:1;stroke-width:0"
     d="M 2.9152001,12.5328 V 8.9615999 H 7.0048 11.0944 V 12.5328 16.104 H 7.0048 2.9152001 Z"
     id="path6674" />
</svg>
