<?xml version="1.0" encoding="UTF-8" standalone="no"?>
<!-- Generator: Adobe Illustrator 18.0.0, SVG Export Plug-In . SVG Version: 6.00 Build 0)  -->

<svg
   version="1.1"
   id="Capa_1"
   x="0px"
   y="0px"
   viewBox="0 0 282.305 282.305"
   style="enable-background:new 0 0 282.305 282.305;"
   xml:space="preserve"
   sodipodi:docname="weight.svg"
   inkscape:version="1.1.1 (c3084ef, 2021-09-22)"
   xmlns:inkscape="http://www.inkscape.org/namespaces/inkscape"
   xmlns:sodipodi="http://sodipodi.sourceforge.net/DTD/sodipodi-0.dtd"
   xmlns="http://www.w3.org/2000/svg"
   xmlns:svg="http://www.w3.org/2000/svg"><defs
   id="defs1348" /><sodipodi:namedview
   id="namedview1346"
   pagecolor="#ffffff"
   bordercolor="#666666"
   borderopacity="1.0"
   inkscape:pageshadow="2"
   inkscape:pageopacity="0.0"
   inkscape:pagecheckerboard="0"
   showgrid="false"
   inkscape:zoom="2.2139176"
   inkscape:cx="141.1525"
   inkscape:cy="141.1525"
   inkscape:window-width="1296"
   inkscape:window-height="847"
   inkscape:window-x="0"
   inkscape:window-y="25"
   inkscape:window-maximized="0"
   inkscape:current-layer="Capa_1" />
<g
   id="g1313">
	<path
   d="M277.097,247.012L249.455,92.795c-2.563-14.299-15.003-24.707-29.529-24.707h-34.03c2.574-5.932,4.008-12.469,4.008-19.336   C189.904,21.87,168.034,0,141.152,0S92.4,21.87,92.4,48.752c0,6.867,1.435,13.404,4.008,19.336h-34.03   c-14.527,0-26.966,10.408-29.529,24.707L5.208,247.012c-1.567,8.743,0.821,17.732,6.521,24.544   c5.7,6.813,14.126,10.749,23.008,10.749h212.83c8.883,0,17.308-3.936,23.008-10.749   C276.276,264.744,278.664,255.755,277.097,247.012z M141.152,30c10.34,0,18.752,8.412,18.752,18.752s-8.412,18.752-18.752,18.752   S122.4,59.092,122.4,48.752S130.813,30,141.152,30z M34.737,252.305L62.379,98.088h157.547l27.642,154.217H34.737z"
   id="path1307" />
	<path
   d="M114.382,177.951l18.436-19.07c1.247-1.289,1.601-3.199,0.901-4.85s-2.32-2.724-4.114-2.724h-6.073   c-1.251,0-2.444,0.524-3.291,1.445l-26.579,28.932v-23.471c0-3.814-3.092-6.906-6.906-6.906s-6.906,3.092-6.906,6.906v54.596   c0,3.814,3.092,6.906,6.906,6.906s6.906-3.092,6.906-6.906v-13.767l11.199-11.432l17.512,29.895c0.802,1.369,2.269,2.21,3.856,2.21   h7.076c1.639,0,3.146-0.897,3.927-2.338c0.781-1.44,0.712-3.193-0.182-4.567L114.382,177.951z"
   id="path1309" />
	<path
   d="M200.808,183.039h-19.539c-3.182,0-5.763,2.58-5.763,5.763c0,3.182,2.58,5.763,5.763,5.763h10.056v8.681   c-2.085,1.616-4.582,2.993-7.489,4.129c-2.909,1.136-5.811,1.703-8.702,1.703c-5.85,0-10.578-2.03-14.186-6.089   c-3.61-4.061-5.413-10.15-5.413-18.269c0-7.528,1.78-13.205,5.343-17.033c3.561-3.825,8.359-5.739,14.395-5.739   c3.981,0,7.302,0.972,9.963,2.916c1.478,1.081,2.693,2.38,3.648,3.898c1.492,2.372,4.283,3.593,7.037,3.077l0.017-0.003   c2.35-0.44,4.316-2.045,5.222-4.258s0.629-4.734-0.737-6.696c-1.429-2.054-3.178-3.853-5.247-5.396   c-4.776-3.562-11.409-5.344-19.902-5.344c-6.533,0-11.993,1.138-16.378,3.407c-5.756,2.957-10.127,7.202-13.113,12.74   c-2.986,5.536-4.48,11.868-4.48,18.991c0,6.565,1.337,12.638,4.013,18.222c2.675,5.585,6.674,9.878,11.992,12.879   c5.321,3.002,11.557,4.502,18.713,4.502c5.63,0,11.19-1.065,16.683-3.196c4.506-1.749,8.137-3.722,10.893-5.922   c1.062-0.847,1.681-2.137,1.681-3.495v-20.762C205.276,185.039,203.276,183.039,200.808,183.039z"
   id="path1311" />
</g>
<g
   id="g1315">
</g>
<g
   id="g1317">
</g>
<g
   id="g1319">
</g>
<g
   id="g1321">
</g>
<g
   id="g1323">
</g>
<g
   id="g1325">
</g>
<g
   id="g1327">
</g>
<g
   id="g1329">
</g>
<g
   id="g1331">
</g>
<g
   id="g1333">
</g>
<g
   id="g1335">
</g>
<g
   id="g1337">
</g>
<g
   id="g1339">
</g>
<g
   id="g1341">
</g>
<g
   id="g1343">
</g>
<path
   style="fill:#ff7d00;stroke-width:0.451688"
   d="m 35.314548,250.79976 c 0.09994,-0.8074 6.270786,-35.46183 13.712979,-77.00987 L 62.558786,98.248014 h 78.593714 78.59371 l 13.53125,75.541876 c 7.4422,41.54804 13.61304,76.20247 13.71298,77.00987 l 0.18172,1.46798 H 141.1525 35.132828 Z M 183.43908,220.43881 c 7.55945,-1.32288 16.49615,-5.12561 20.0516,-8.53234 l 2.02735,-1.94255 v -12.04003 -12.04003 l -1.31727,-1.47511 -1.31727,-1.47511 -11.10124,-0.13535 c -10.13035,-0.12351 -11.27222,-0.0597 -13.05635,0.72949 -4.54365,2.00988 -4.61833,8.27684 -0.12454,10.45225 1.58854,0.769 2.79237,0.92334 7.20196,0.92334 h 5.2946 l -0.12987,4.16227 -0.12987,4.16228 -1.80676,1.20798 c -5.08185,3.39768 -12.00542,5.0117 -17.37899,4.05139 -10.17589,-1.81854 -15.83716,-10.27342 -15.81223,-23.61494 0.0198,-10.6078 3.54546,-17.44449 10.73114,-20.80911 2.55156,-1.19474 3.70578,-1.45162 7.21475,-1.60568 2.38143,-0.10456 5.09999,0.0472 6.32363,0.35295 3.01564,0.75357 6.14135,2.88631 8.05923,5.49898 1.96598,2.6782 3.78448,3.71663 6.50857,3.71663 5.43343,0 8.88166,-5.56957 6.41105,-10.35509 -3.21213,-6.22183 -11.24578,-10.589 -21.04418,-11.43981 -13.12945,-1.14005 -23.32942,2.2319 -30.28113,10.01049 -9.94042,11.1228 -11.49886,31.13368 -3.54369,45.50217 3.32989,6.01438 10.6663,11.68985 17.76075,13.73977 5.70261,1.64776 13.35457,2.02337 19.45876,0.95516 z M 90.590999,218.8258 c 2.788324,-1.72328 3.357781,-3.78174 3.377294,-12.20823 l 0.01721,-7.42317 5.366523,-5.51056 c 3.832414,-3.93527 5.487004,-5.35563 5.787974,-4.96857 0.23179,0.2981 4.13754,6.94467 8.67944,14.77017 4.5419,7.82549 8.75011,14.6855 9.35157,15.24447 1.01111,0.93965 1.51283,1.0163 6.6529,1.0163 5.40437,0 5.59251,-0.0332 6.75013,-1.19082 0.9266,-0.92659 1.19081,-1.63279 1.19081,-3.18278 0,-1.83883 -0.86753,-3.32544 -11.28398,-19.33635 -6.2062,-9.53941 -11.3385,-17.53304 -11.40513,-17.76362 -0.0666,-0.23058 4.19814,-4.9176 9.47724,-10.41561 9.5542,-9.95037 9.59837,-10.0056 9.59837,-12.00163 0,-1.4678 -0.29193,-2.34495 -1.08919,-3.2726 -1.05295,-1.22515 -1.25535,-1.2724 -6.08299,-1.41982 l -4.99379,-0.15249 -2.38617,2.27475 c -1.3124,1.25111 -7.5693,7.93443 -13.90422,14.85181 l -11.518043,12.57707 -0.225844,-12.52185 c -0.211932,-11.75048 -0.283213,-12.59861 -1.15713,-13.76803 -1.471848,-1.96954 -3.098381,-2.96443 -5.241451,-3.20598 -2.622907,-0.29564 -4.88968,0.68944 -6.527908,2.83686 l -1.301683,1.70627 -0.125876,28.6213 c -0.08197,18.63857 0.03659,29.22461 0.339895,30.35103 0.484227,1.79829 2.291092,3.95023 3.851173,4.58668 1.761185,0.7185 5.250529,0.46481 6.802877,-0.4946 z"
   id="path1444" /></svg>
